<?xml version="1.0" encoding="utf-8" standalone="no"?>
<!DOCTYPE svg PUBLIC "-//W3C//DTD SVG 1.1//EN"
  "http://www.w3.org/Graphics/SVG/1.1/DTD/svg11.dtd">
<!-- Created with matplotlib (https://matplotlib.org/) -->
<svg height="345.6pt" version="1.1" viewBox="0 0 460.8 345.6" width="460.8pt" xmlns="http://www.w3.org/2000/svg" xmlns:xlink="http://www.w3.org/1999/xlink">
 <defs>
  <style type="text/css">
*{stroke-linecap:butt;stroke-linejoin:round;}
  </style>
 </defs>
 <g id="figure_1">
  <g id="patch_1">
   <path d="M 0 345.6 
L 460.8 345.6 
L 460.8 0 
L 0 0 
z
" style="fill:#ffffff;"/>
  </g>
  <g id="axes_1">
   <g id="patch_2">
    <path d="M 57.6 307.584 
L 414.72 307.584 
L 414.72 41.472 
L 57.6 41.472 
z
" style="fill:#ffffff;"/>
   </g>
   <g id="matplotlib.axis_1">
    <g id="xtick_1">
     <g id="line2d_1">
      <defs>
       <path d="M 0 0 
L 0 3.5 
" id="m908afd42e0" style="stroke:#000000;stroke-width:0.8;"/>
      </defs>
      <g>
       <use style="stroke:#000000;stroke-width:0.8;" x="73.832727" xlink:href="#m908afd42e0" y="307.584"/>
      </g>
     </g>
     <g id="text_1">
      <!-- 00:00 -->
      <defs>
       <path d="M 31.78125 66.40625 
Q 24.171875 66.40625 20.328125 58.90625 
Q 16.5 51.421875 16.5 36.375 
Q 16.5 21.390625 20.328125 13.890625 
Q 24.171875 6.390625 31.78125 6.390625 
Q 39.453125 6.390625 43.28125 13.890625 
Q 47.125 21.390625 47.125 36.375 
Q 47.125 51.421875 43.28125 58.90625 
Q 39.453125 66.40625 31.78125 66.40625 
z
M 31.78125 74.21875 
Q 44.046875 74.21875 50.515625 64.515625 
Q 56.984375 54.828125 56.984375 36.375 
Q 56.984375 17.96875 50.515625 8.265625 
Q 44.046875 -1.421875 31.78125 -1.421875 
Q 19.53125 -1.421875 13.0625 8.265625 
Q 6.59375 17.96875 6.59375 36.375 
Q 6.59375 54.828125 13.0625 64.515625 
Q 19.53125 74.21875 31.78125 74.21875 
z
" id="DejaVuSans-48"/>
       <path d="M 11.71875 12.40625 
L 22.015625 12.40625 
L 22.015625 0 
L 11.71875 0 
z
M 11.71875 51.703125 
L 22.015625 51.703125 
L 22.015625 39.3125 
L 11.71875 39.3125 
z
" id="DejaVuSans-58"/>
      </defs>
      <g transform="translate(59.423352 322.182437)scale(0.1 -0.1)">
       <use xlink:href="#DejaVuSans-48"/>
       <use x="63.623047" xlink:href="#DejaVuSans-48"/>
       <use x="127.246094" xlink:href="#DejaVuSans-58"/>
       <use x="160.9375" xlink:href="#DejaVuSans-48"/>
       <use x="224.560547" xlink:href="#DejaVuSans-48"/>
      </g>
     </g>
    </g>
    <g id="xtick_2">
     <g id="line2d_2">
      <g>
       <use style="stroke:#000000;stroke-width:0.8;" x="114.841722" xlink:href="#m908afd42e0" y="307.584"/>
      </g>
     </g>
     <g id="text_2">
      <!-- 03:00 -->
      <defs>
       <path d="M 40.578125 39.3125 
Q 47.65625 37.796875 51.625 33 
Q 55.609375 28.21875 55.609375 21.1875 
Q 55.609375 10.40625 48.1875 4.484375 
Q 40.765625 -1.421875 27.09375 -1.421875 
Q 22.515625 -1.421875 17.65625 -0.515625 
Q 12.796875 0.390625 7.625 2.203125 
L 7.625 11.71875 
Q 11.71875 9.328125 16.59375 8.109375 
Q 21.484375 6.890625 26.8125 6.890625 
Q 36.078125 6.890625 40.9375 10.546875 
Q 45.796875 14.203125 45.796875 21.1875 
Q 45.796875 27.640625 41.28125 31.265625 
Q 36.765625 34.90625 28.71875 34.90625 
L 20.21875 34.90625 
L 20.21875 43.015625 
L 29.109375 43.015625 
Q 36.375 43.015625 40.234375 45.921875 
Q 44.09375 48.828125 44.09375 54.296875 
Q 44.09375 59.90625 40.109375 62.90625 
Q 36.140625 65.921875 28.71875 65.921875 
Q 24.65625 65.921875 20.015625 65.03125 
Q 15.375 64.15625 9.8125 62.3125 
L 9.8125 71.09375 
Q 15.4375 72.65625 20.34375 73.4375 
Q 25.25 74.21875 29.59375 74.21875 
Q 40.828125 74.21875 47.359375 69.109375 
Q 53.90625 64.015625 53.90625 55.328125 
Q 53.90625 49.265625 50.4375 45.09375 
Q 46.96875 40.921875 40.578125 39.3125 
z
" id="DejaVuSans-51"/>
      </defs>
      <g transform="translate(100.432347 322.182437)scale(0.1 -0.1)">
       <use xlink:href="#DejaVuSans-48"/>
       <use x="63.623047" xlink:href="#DejaVuSans-51"/>
       <use x="127.246094" xlink:href="#DejaVuSans-58"/>
       <use x="160.9375" xlink:href="#DejaVuSans-48"/>
       <use x="224.560547" xlink:href="#DejaVuSans-48"/>
      </g>
     </g>
    </g>
    <g id="xtick_3">
     <g id="line2d_3">
      <g>
       <use style="stroke:#000000;stroke-width:0.8;" x="155.850718" xlink:href="#m908afd42e0" y="307.584"/>
      </g>
     </g>
     <g id="text_3">
      <!-- 06:00 -->
      <defs>
       <path d="M 33.015625 40.375 
Q 26.375 40.375 22.484375 35.828125 
Q 18.609375 31.296875 18.609375 23.390625 
Q 18.609375 15.53125 22.484375 10.953125 
Q 26.375 6.390625 33.015625 6.390625 
Q 39.65625 6.390625 43.53125 10.953125 
Q 47.40625 15.53125 47.40625 23.390625 
Q 47.40625 31.296875 43.53125 35.828125 
Q 39.65625 40.375 33.015625 40.375 
z
M 52.59375 71.296875 
L 52.59375 62.3125 
Q 48.875 64.0625 45.09375 64.984375 
Q 41.3125 65.921875 37.59375 65.921875 
Q 27.828125 65.921875 22.671875 59.328125 
Q 17.53125 52.734375 16.796875 39.40625 
Q 19.671875 43.65625 24.015625 45.921875 
Q 28.375 48.1875 33.59375 48.1875 
Q 44.578125 48.1875 50.953125 41.515625 
Q 57.328125 34.859375 57.328125 23.390625 
Q 57.328125 12.15625 50.6875 5.359375 
Q 44.046875 -1.421875 33.015625 -1.421875 
Q 20.359375 -1.421875 13.671875 8.265625 
Q 6.984375 17.96875 6.984375 36.375 
Q 6.984375 53.65625 15.1875 63.9375 
Q 23.390625 74.21875 37.203125 74.21875 
Q 40.921875 74.21875 44.703125 73.484375 
Q 48.484375 72.75 52.59375 71.296875 
z
" id="DejaVuSans-54"/>
      </defs>
      <g transform="translate(141.441343 322.182437)scale(0.1 -0.1)">
       <use xlink:href="#DejaVuSans-48"/>
       <use x="63.623047" xlink:href="#DejaVuSans-54"/>
       <use x="127.246094" xlink:href="#DejaVuSans-58"/>
       <use x="160.9375" xlink:href="#DejaVuSans-48"/>
       <use x="224.560547" xlink:href="#DejaVuSans-48"/>
      </g>
     </g>
    </g>
    <g id="xtick_4">
     <g id="line2d_4">
      <g>
       <use style="stroke:#000000;stroke-width:0.8;" x="196.859713" xlink:href="#m908afd42e0" y="307.584"/>
      </g>
     </g>
     <g id="text_4">
      <!-- 09:00 -->
      <defs>
       <path d="M 10.984375 1.515625 
L 10.984375 10.5 
Q 14.703125 8.734375 18.5 7.8125 
Q 22.3125 6.890625 25.984375 6.890625 
Q 35.75 6.890625 40.890625 13.453125 
Q 46.046875 20.015625 46.78125 33.40625 
Q 43.953125 29.203125 39.59375 26.953125 
Q 35.25 24.703125 29.984375 24.703125 
Q 19.046875 24.703125 12.671875 31.3125 
Q 6.296875 37.9375 6.296875 49.421875 
Q 6.296875 60.640625 12.9375 67.421875 
Q 19.578125 74.21875 30.609375 74.21875 
Q 43.265625 74.21875 49.921875 64.515625 
Q 56.59375 54.828125 56.59375 36.375 
Q 56.59375 19.140625 48.40625 8.859375 
Q 40.234375 -1.421875 26.421875 -1.421875 
Q 22.703125 -1.421875 18.890625 -0.6875 
Q 15.09375 0.046875 10.984375 1.515625 
z
M 30.609375 32.421875 
Q 37.25 32.421875 41.125 36.953125 
Q 45.015625 41.5 45.015625 49.421875 
Q 45.015625 57.28125 41.125 61.84375 
Q 37.25 66.40625 30.609375 66.40625 
Q 23.96875 66.40625 20.09375 61.84375 
Q 16.21875 57.28125 16.21875 49.421875 
Q 16.21875 41.5 20.09375 36.953125 
Q 23.96875 32.421875 30.609375 32.421875 
z
" id="DejaVuSans-57"/>
      </defs>
      <g transform="translate(182.450338 322.182437)scale(0.1 -0.1)">
       <use xlink:href="#DejaVuSans-48"/>
       <use x="63.623047" xlink:href="#DejaVuSans-57"/>
       <use x="127.246094" xlink:href="#DejaVuSans-58"/>
       <use x="160.9375" xlink:href="#DejaVuSans-48"/>
       <use x="224.560547" xlink:href="#DejaVuSans-48"/>
      </g>
     </g>
    </g>
    <g id="xtick_5">
     <g id="line2d_5">
      <g>
       <use style="stroke:#000000;stroke-width:0.8;" x="237.868708" xlink:href="#m908afd42e0" y="307.584"/>
      </g>
     </g>
     <g id="text_5">
      <!-- 12:00 -->
      <defs>
       <path d="M 12.40625 8.296875 
L 28.515625 8.296875 
L 28.515625 63.921875 
L 10.984375 60.40625 
L 10.984375 69.390625 
L 28.421875 72.90625 
L 38.28125 72.90625 
L 38.28125 8.296875 
L 54.390625 8.296875 
L 54.390625 0 
L 12.40625 0 
z
" id="DejaVuSans-49"/>
       <path d="M 19.1875 8.296875 
L 53.609375 8.296875 
L 53.609375 0 
L 7.328125 0 
L 7.328125 8.296875 
Q 12.9375 14.109375 22.625 23.890625 
Q 32.328125 33.6875 34.8125 36.53125 
Q 39.546875 41.84375 41.421875 45.53125 
Q 43.3125 49.21875 43.3125 52.78125 
Q 43.3125 58.59375 39.234375 62.25 
Q 35.15625 65.921875 28.609375 65.921875 
Q 23.96875 65.921875 18.8125 64.3125 
Q 13.671875 62.703125 7.8125 59.421875 
L 7.8125 69.390625 
Q 13.765625 71.78125 18.9375 73 
Q 24.125 74.21875 28.421875 74.21875 
Q 39.75 74.21875 46.484375 68.546875 
Q 53.21875 62.890625 53.21875 53.421875 
Q 53.21875 48.921875 51.53125 44.890625 
Q 49.859375 40.875 45.40625 35.40625 
Q 44.1875 33.984375 37.640625 27.21875 
Q 31.109375 20.453125 19.1875 8.296875 
z
" id="DejaVuSans-50"/>
      </defs>
      <g transform="translate(223.459333 322.182437)scale(0.1 -0.1)">
       <use xlink:href="#DejaVuSans-49"/>
       <use x="63.623047" xlink:href="#DejaVuSans-50"/>
       <use x="127.246094" xlink:href="#DejaVuSans-58"/>
       <use x="160.9375" xlink:href="#DejaVuSans-48"/>
       <use x="224.560547" xlink:href="#DejaVuSans-48"/>
      </g>
     </g>
    </g>
    <g id="xtick_6">
     <g id="line2d_6">
      <g>
       <use style="stroke:#000000;stroke-width:0.8;" x="278.877703" xlink:href="#m908afd42e0" y="307.584"/>
      </g>
     </g>
     <g id="text_6">
      <!-- 15:00 -->
      <defs>
       <path d="M 10.796875 72.90625 
L 49.515625 72.90625 
L 49.515625 64.59375 
L 19.828125 64.59375 
L 19.828125 46.734375 
Q 21.96875 47.46875 24.109375 47.828125 
Q 26.265625 48.1875 28.421875 48.1875 
Q 40.625 48.1875 47.75 41.5 
Q 54.890625 34.8125 54.890625 23.390625 
Q 54.890625 11.625 47.5625 5.09375 
Q 40.234375 -1.421875 26.90625 -1.421875 
Q 22.3125 -1.421875 17.546875 -0.640625 
Q 12.796875 0.140625 7.71875 1.703125 
L 7.71875 11.625 
Q 12.109375 9.234375 16.796875 8.0625 
Q 21.484375 6.890625 26.703125 6.890625 
Q 35.15625 6.890625 40.078125 11.328125 
Q 45.015625 15.765625 45.015625 23.390625 
Q 45.015625 31 40.078125 35.4375 
Q 35.15625 39.890625 26.703125 39.890625 
Q 22.75 39.890625 18.8125 39.015625 
Q 14.890625 38.140625 10.796875 36.28125 
z
" id="DejaVuSans-53"/>
      </defs>
      <g transform="translate(264.468328 322.182437)scale(0.1 -0.1)">
       <use xlink:href="#DejaVuSans-49"/>
       <use x="63.623047" xlink:href="#DejaVuSans-53"/>
       <use x="127.246094" xlink:href="#DejaVuSans-58"/>
       <use x="160.9375" xlink:href="#DejaVuSans-48"/>
       <use x="224.560547" xlink:href="#DejaVuSans-48"/>
      </g>
     </g>
    </g>
    <g id="xtick_7">
     <g id="line2d_7">
      <g>
       <use style="stroke:#000000;stroke-width:0.8;" x="319.886699" xlink:href="#m908afd42e0" y="307.584"/>
      </g>
     </g>
     <g id="text_7">
      <!-- 18:00 -->
      <defs>
       <path d="M 31.78125 34.625 
Q 24.75 34.625 20.71875 30.859375 
Q 16.703125 27.09375 16.703125 20.515625 
Q 16.703125 13.921875 20.71875 10.15625 
Q 24.75 6.390625 31.78125 6.390625 
Q 38.8125 6.390625 42.859375 10.171875 
Q 46.921875 13.96875 46.921875 20.515625 
Q 46.921875 27.09375 42.890625 30.859375 
Q 38.875 34.625 31.78125 34.625 
z
M 21.921875 38.8125 
Q 15.578125 40.375 12.03125 44.71875 
Q 8.5 49.078125 8.5 55.328125 
Q 8.5 64.0625 14.71875 69.140625 
Q 20.953125 74.21875 31.78125 74.21875 
Q 42.671875 74.21875 48.875 69.140625 
Q 55.078125 64.0625 55.078125 55.328125 
Q 55.078125 49.078125 51.53125 44.71875 
Q 48 40.375 41.703125 38.8125 
Q 48.828125 37.15625 52.796875 32.3125 
Q 56.78125 27.484375 56.78125 20.515625 
Q 56.78125 9.90625 50.3125 4.234375 
Q 43.84375 -1.421875 31.78125 -1.421875 
Q 19.734375 -1.421875 13.25 4.234375 
Q 6.78125 9.90625 6.78125 20.515625 
Q 6.78125 27.484375 10.78125 32.3125 
Q 14.796875 37.15625 21.921875 38.8125 
z
M 18.3125 54.390625 
Q 18.3125 48.734375 21.84375 45.5625 
Q 25.390625 42.390625 31.78125 42.390625 
Q 38.140625 42.390625 41.71875 45.5625 
Q 45.3125 48.734375 45.3125 54.390625 
Q 45.3125 60.0625 41.71875 63.234375 
Q 38.140625 66.40625 31.78125 66.40625 
Q 25.390625 66.40625 21.84375 63.234375 
Q 18.3125 60.0625 18.3125 54.390625 
z
" id="DejaVuSans-56"/>
      </defs>
      <g transform="translate(305.477324 322.182437)scale(0.1 -0.1)">
       <use xlink:href="#DejaVuSans-49"/>
       <use x="63.623047" xlink:href="#DejaVuSans-56"/>
       <use x="127.246094" xlink:href="#DejaVuSans-58"/>
       <use x="160.9375" xlink:href="#DejaVuSans-48"/>
       <use x="224.560547" xlink:href="#DejaVuSans-48"/>
      </g>
     </g>
    </g>
    <g id="xtick_8">
     <g id="line2d_8">
      <g>
       <use style="stroke:#000000;stroke-width:0.8;" x="360.895694" xlink:href="#m908afd42e0" y="307.584"/>
      </g>
     </g>
     <g id="text_8">
      <!-- 21:00 -->
      <g transform="translate(346.486319 322.182437)scale(0.1 -0.1)">
       <use xlink:href="#DejaVuSans-50"/>
       <use x="63.623047" xlink:href="#DejaVuSans-49"/>
       <use x="127.246094" xlink:href="#DejaVuSans-58"/>
       <use x="160.9375" xlink:href="#DejaVuSans-48"/>
       <use x="224.560547" xlink:href="#DejaVuSans-48"/>
      </g>
     </g>
    </g>
    <g id="xtick_9">
     <g id="line2d_9">
      <g>
       <use style="stroke:#000000;stroke-width:0.8;" x="401.904689" xlink:href="#m908afd42e0" y="307.584"/>
      </g>
     </g>
     <g id="text_9">
      <!-- 00:00 -->
      <g transform="translate(387.495314 322.182437)scale(0.1 -0.1)">
       <use xlink:href="#DejaVuSans-48"/>
       <use x="63.623047" xlink:href="#DejaVuSans-48"/>
       <use x="127.246094" xlink:href="#DejaVuSans-58"/>
       <use x="160.9375" xlink:href="#DejaVuSans-48"/>
       <use x="224.560547" xlink:href="#DejaVuSans-48"/>
      </g>
     </g>
    </g>
    <g id="text_10">
     <!-- Time of day -->
     <defs>
      <path d="M -0.296875 72.90625 
L 61.375 72.90625 
L 61.375 64.59375 
L 35.5 64.59375 
L 35.5 0 
L 25.59375 0 
L 25.59375 64.59375 
L -0.296875 64.59375 
z
" id="DejaVuSans-84"/>
      <path d="M 9.421875 54.6875 
L 18.40625 54.6875 
L 18.40625 0 
L 9.421875 0 
z
M 9.421875 75.984375 
L 18.40625 75.984375 
L 18.40625 64.59375 
L 9.421875 64.59375 
z
" id="DejaVuSans-105"/>
      <path d="M 52 44.1875 
Q 55.375 50.25 60.0625 53.125 
Q 64.75 56 71.09375 56 
Q 79.640625 56 84.28125 50.015625 
Q 88.921875 44.046875 88.921875 33.015625 
L 88.921875 0 
L 79.890625 0 
L 79.890625 32.71875 
Q 79.890625 40.578125 77.09375 44.375 
Q 74.3125 48.1875 68.609375 48.1875 
Q 61.625 48.1875 57.5625 43.546875 
Q 53.515625 38.921875 53.515625 30.90625 
L 53.515625 0 
L 44.484375 0 
L 44.484375 32.71875 
Q 44.484375 40.625 41.703125 44.40625 
Q 38.921875 48.1875 33.109375 48.1875 
Q 26.21875 48.1875 22.15625 43.53125 
Q 18.109375 38.875 18.109375 30.90625 
L 18.109375 0 
L 9.078125 0 
L 9.078125 54.6875 
L 18.109375 54.6875 
L 18.109375 46.1875 
Q 21.1875 51.21875 25.484375 53.609375 
Q 29.78125 56 35.6875 56 
Q 41.65625 56 45.828125 52.96875 
Q 50 49.953125 52 44.1875 
z
" id="DejaVuSans-109"/>
      <path d="M 56.203125 29.59375 
L 56.203125 25.203125 
L 14.890625 25.203125 
Q 15.484375 15.921875 20.484375 11.0625 
Q 25.484375 6.203125 34.421875 6.203125 
Q 39.59375 6.203125 44.453125 7.46875 
Q 49.3125 8.734375 54.109375 11.28125 
L 54.109375 2.78125 
Q 49.265625 0.734375 44.1875 -0.34375 
Q 39.109375 -1.421875 33.890625 -1.421875 
Q 20.796875 -1.421875 13.15625 6.1875 
Q 5.515625 13.8125 5.515625 26.8125 
Q 5.515625 40.234375 12.765625 48.109375 
Q 20.015625 56 32.328125 56 
Q 43.359375 56 49.78125 48.890625 
Q 56.203125 41.796875 56.203125 29.59375 
z
M 47.21875 32.234375 
Q 47.125 39.59375 43.09375 43.984375 
Q 39.0625 48.390625 32.421875 48.390625 
Q 24.90625 48.390625 20.390625 44.140625 
Q 15.875 39.890625 15.1875 32.171875 
z
" id="DejaVuSans-101"/>
      <path id="DejaVuSans-32"/>
      <path d="M 30.609375 48.390625 
Q 23.390625 48.390625 19.1875 42.75 
Q 14.984375 37.109375 14.984375 27.296875 
Q 14.984375 17.484375 19.15625 11.84375 
Q 23.34375 6.203125 30.609375 6.203125 
Q 37.796875 6.203125 41.984375 11.859375 
Q 46.1875 17.53125 46.1875 27.296875 
Q 46.1875 37.015625 41.984375 42.703125 
Q 37.796875 48.390625 30.609375 48.390625 
z
M 30.609375 56 
Q 42.328125 56 49.015625 48.375 
Q 55.71875 40.765625 55.71875 27.296875 
Q 55.71875 13.875 49.015625 6.21875 
Q 42.328125 -1.421875 30.609375 -1.421875 
Q 18.84375 -1.421875 12.171875 6.21875 
Q 5.515625 13.875 5.515625 27.296875 
Q 5.515625 40.765625 12.171875 48.375 
Q 18.84375 56 30.609375 56 
z
" id="DejaVuSans-111"/>
      <path d="M 37.109375 75.984375 
L 37.109375 68.5 
L 28.515625 68.5 
Q 23.6875 68.5 21.796875 66.546875 
Q 19.921875 64.59375 19.921875 59.515625 
L 19.921875 54.6875 
L 34.71875 54.6875 
L 34.71875 47.703125 
L 19.921875 47.703125 
L 19.921875 0 
L 10.890625 0 
L 10.890625 47.703125 
L 2.296875 47.703125 
L 2.296875 54.6875 
L 10.890625 54.6875 
L 10.890625 58.5 
Q 10.890625 67.625 15.140625 71.796875 
Q 19.390625 75.984375 28.609375 75.984375 
z
" id="DejaVuSans-102"/>
      <path d="M 45.40625 46.390625 
L 45.40625 75.984375 
L 54.390625 75.984375 
L 54.390625 0 
L 45.40625 0 
L 45.40625 8.203125 
Q 42.578125 3.328125 38.25 0.953125 
Q 33.9375 -1.421875 27.875 -1.421875 
Q 17.96875 -1.421875 11.734375 6.484375 
Q 5.515625 14.40625 5.515625 27.296875 
Q 5.515625 40.1875 11.734375 48.09375 
Q 17.96875 56 27.875 56 
Q 33.9375 56 38.25 53.625 
Q 42.578125 51.265625 45.40625 46.390625 
z
M 14.796875 27.296875 
Q 14.796875 17.390625 18.875 11.75 
Q 22.953125 6.109375 30.078125 6.109375 
Q 37.203125 6.109375 41.296875 11.75 
Q 45.40625 17.390625 45.40625 27.296875 
Q 45.40625 37.203125 41.296875 42.84375 
Q 37.203125 48.484375 30.078125 48.484375 
Q 22.953125 48.484375 18.875 42.84375 
Q 14.796875 37.203125 14.796875 27.296875 
z
" id="DejaVuSans-100"/>
      <path d="M 34.28125 27.484375 
Q 23.390625 27.484375 19.1875 25 
Q 14.984375 22.515625 14.984375 16.5 
Q 14.984375 11.71875 18.140625 8.90625 
Q 21.296875 6.109375 26.703125 6.109375 
Q 34.1875 6.109375 38.703125 11.40625 
Q 43.21875 16.703125 43.21875 25.484375 
L 43.21875 27.484375 
z
M 52.203125 31.203125 
L 52.203125 0 
L 43.21875 0 
L 43.21875 8.296875 
Q 40.140625 3.328125 35.546875 0.953125 
Q 30.953125 -1.421875 24.3125 -1.421875 
Q 15.921875 -1.421875 10.953125 3.296875 
Q 6 8.015625 6 15.921875 
Q 6 25.140625 12.171875 29.828125 
Q 18.359375 34.515625 30.609375 34.515625 
L 43.21875 34.515625 
L 43.21875 35.40625 
Q 43.21875 41.609375 39.140625 45 
Q 35.0625 48.390625 27.6875 48.390625 
Q 23 48.390625 18.546875 47.265625 
Q 14.109375 46.140625 10.015625 43.890625 
L 10.015625 52.203125 
Q 14.9375 54.109375 19.578125 55.046875 
Q 24.21875 56 28.609375 56 
Q 40.484375 56 46.34375 49.84375 
Q 52.203125 43.703125 52.203125 31.203125 
z
" id="DejaVuSans-97"/>
      <path d="M 32.171875 -5.078125 
Q 28.375 -14.84375 24.75 -17.8125 
Q 21.140625 -20.796875 15.09375 -20.796875 
L 7.90625 -20.796875 
L 7.90625 -13.28125 
L 13.1875 -13.28125 
Q 16.890625 -13.28125 18.9375 -11.515625 
Q 21 -9.765625 23.484375 -3.21875 
L 25.09375 0.875 
L 2.984375 54.6875 
L 12.5 54.6875 
L 29.59375 11.921875 
L 46.6875 54.6875 
L 56.203125 54.6875 
z
" id="DejaVuSans-121"/>
     </defs>
     <g transform="translate(206.577187 335.860562)scale(0.1 -0.1)">
      <use xlink:href="#DejaVuSans-84"/>
      <use x="61.037109" xlink:href="#DejaVuSans-105"/>
      <use x="88.820312" xlink:href="#DejaVuSans-109"/>
      <use x="186.232422" xlink:href="#DejaVuSans-101"/>
      <use x="247.755859" xlink:href="#DejaVuSans-32"/>
      <use x="279.542969" xlink:href="#DejaVuSans-111"/>
      <use x="340.724609" xlink:href="#DejaVuSans-102"/>
      <use x="375.929688" xlink:href="#DejaVuSans-32"/>
      <use x="407.716797" xlink:href="#DejaVuSans-100"/>
      <use x="471.193359" xlink:href="#DejaVuSans-97"/>
      <use x="532.472656" xlink:href="#DejaVuSans-121"/>
     </g>
    </g>
   </g>
   <g id="matplotlib.axis_2">
    <g id="ytick_1">
     <g id="line2d_10">
      <defs>
       <path d="M 0 0 
L -3.5 0 
" id="m4a18e373a0" style="stroke:#000000;stroke-width:0.8;"/>
      </defs>
      <g>
       <use style="stroke:#000000;stroke-width:0.8;" x="57.6" xlink:href="#m4a18e373a0" y="296.019997"/>
      </g>
     </g>
    </g>
    <g id="ytick_2">
     <g id="line2d_11">
      <g>
       <use style="stroke:#000000;stroke-width:0.8;" x="57.6" xlink:href="#m4a18e373a0" y="242.820256"/>
      </g>
     </g>
    </g>
    <g id="ytick_3">
     <g id="line2d_12">
      <g>
       <use style="stroke:#000000;stroke-width:0.8;" x="57.6" xlink:href="#m4a18e373a0" y="189.620515"/>
      </g>
     </g>
    </g>
    <g id="ytick_4">
     <g id="line2d_13">
      <g>
       <use style="stroke:#000000;stroke-width:0.8;" x="57.6" xlink:href="#m4a18e373a0" y="136.420774"/>
      </g>
     </g>
    </g>
    <g id="ytick_5">
     <g id="line2d_14">
      <g>
       <use style="stroke:#000000;stroke-width:0.8;" x="57.6" xlink:href="#m4a18e373a0" y="83.221032"/>
      </g>
     </g>
    </g>
    <g id="text_11">
     <!-- Frequency -->
     <defs>
      <path d="M 9.8125 72.90625 
L 51.703125 72.90625 
L 51.703125 64.59375 
L 19.671875 64.59375 
L 19.671875 43.109375 
L 48.578125 43.109375 
L 48.578125 34.8125 
L 19.671875 34.8125 
L 19.671875 0 
L 9.8125 0 
z
" id="DejaVuSans-70"/>
      <path d="M 41.109375 46.296875 
Q 39.59375 47.171875 37.8125 47.578125 
Q 36.03125 48 33.890625 48 
Q 26.265625 48 22.1875 43.046875 
Q 18.109375 38.09375 18.109375 28.8125 
L 18.109375 0 
L 9.078125 0 
L 9.078125 54.6875 
L 18.109375 54.6875 
L 18.109375 46.1875 
Q 20.953125 51.171875 25.484375 53.578125 
Q 30.03125 56 36.53125 56 
Q 37.453125 56 38.578125 55.875 
Q 39.703125 55.765625 41.0625 55.515625 
z
" id="DejaVuSans-114"/>
      <path d="M 14.796875 27.296875 
Q 14.796875 17.390625 18.875 11.75 
Q 22.953125 6.109375 30.078125 6.109375 
Q 37.203125 6.109375 41.296875 11.75 
Q 45.40625 17.390625 45.40625 27.296875 
Q 45.40625 37.203125 41.296875 42.84375 
Q 37.203125 48.484375 30.078125 48.484375 
Q 22.953125 48.484375 18.875 42.84375 
Q 14.796875 37.203125 14.796875 27.296875 
z
M 45.40625 8.203125 
Q 42.578125 3.328125 38.25 0.953125 
Q 33.9375 -1.421875 27.875 -1.421875 
Q 17.96875 -1.421875 11.734375 6.484375 
Q 5.515625 14.40625 5.515625 27.296875 
Q 5.515625 40.1875 11.734375 48.09375 
Q 17.96875 56 27.875 56 
Q 33.9375 56 38.25 53.625 
Q 42.578125 51.265625 45.40625 46.390625 
L 45.40625 54.6875 
L 54.390625 54.6875 
L 54.390625 -20.796875 
L 45.40625 -20.796875 
z
" id="DejaVuSans-113"/>
      <path d="M 8.5 21.578125 
L 8.5 54.6875 
L 17.484375 54.6875 
L 17.484375 21.921875 
Q 17.484375 14.15625 20.5 10.265625 
Q 23.53125 6.390625 29.59375 6.390625 
Q 36.859375 6.390625 41.078125 11.03125 
Q 45.3125 15.671875 45.3125 23.6875 
L 45.3125 54.6875 
L 54.296875 54.6875 
L 54.296875 0 
L 45.3125 0 
L 45.3125 8.40625 
Q 42.046875 3.421875 37.71875 1 
Q 33.40625 -1.421875 27.6875 -1.421875 
Q 18.265625 -1.421875 13.375 4.4375 
Q 8.5 10.296875 8.5 21.578125 
z
M 31.109375 56 
z
" id="DejaVuSans-117"/>
      <path d="M 54.890625 33.015625 
L 54.890625 0 
L 45.90625 0 
L 45.90625 32.71875 
Q 45.90625 40.484375 42.875 44.328125 
Q 39.84375 48.1875 33.796875 48.1875 
Q 26.515625 48.1875 22.3125 43.546875 
Q 18.109375 38.921875 18.109375 30.90625 
L 18.109375 0 
L 9.078125 0 
L 9.078125 54.6875 
L 18.109375 54.6875 
L 18.109375 46.1875 
Q 21.34375 51.125 25.703125 53.5625 
Q 30.078125 56 35.796875 56 
Q 45.21875 56 50.046875 50.171875 
Q 54.890625 44.34375 54.890625 33.015625 
z
" id="DejaVuSans-110"/>
      <path d="M 48.78125 52.59375 
L 48.78125 44.1875 
Q 44.96875 46.296875 41.140625 47.34375 
Q 37.3125 48.390625 33.40625 48.390625 
Q 24.65625 48.390625 19.8125 42.84375 
Q 14.984375 37.3125 14.984375 27.296875 
Q 14.984375 17.28125 19.8125 11.734375 
Q 24.65625 6.203125 33.40625 6.203125 
Q 37.3125 6.203125 41.140625 7.25 
Q 44.96875 8.296875 48.78125 10.40625 
L 48.78125 2.09375 
Q 45.015625 0.34375 40.984375 -0.53125 
Q 36.96875 -1.421875 32.421875 -1.421875 
Q 20.0625 -1.421875 12.78125 6.34375 
Q 5.515625 14.109375 5.515625 27.296875 
Q 5.515625 40.671875 12.859375 48.328125 
Q 20.21875 56 33.015625 56 
Q 37.15625 56 41.109375 55.140625 
Q 45.0625 54.296875 48.78125 52.59375 
z
" id="DejaVuSans-99"/>
     </defs>
     <g transform="translate(44.520313 200.825656)rotate(-90)scale(0.1 -0.1)">
      <use xlink:href="#DejaVuSans-70"/>
      <use x="57.410156" xlink:href="#DejaVuSans-114"/>
      <use x="98.492188" xlink:href="#DejaVuSans-101"/>
      <use x="160.015625" xlink:href="#DejaVuSans-113"/>
      <use x="223.492188" xlink:href="#DejaVuSans-117"/>
      <use x="286.871094" xlink:href="#DejaVuSans-101"/>
      <use x="348.394531" xlink:href="#DejaVuSans-110"/>
      <use x="411.773438" xlink:href="#DejaVuSans-99"/>
      <use x="466.753906" xlink:href="#DejaVuSans-121"/>
     </g>
    </g>
   </g>
   <g id="line2d_15">
    <path clip-path="url(#pb23ccbf9c4)" d="M 73.832727 249.818628 
L 77.250144 264.601944 
L 80.66756 274.588397 
L 84.084976 281.881873 
L 87.502392 285.584715 
L 90.919809 288.193536 
L 94.337225 290.073009 
L 97.754641 292.204948 
L 101.172057 291.840274 
L 104.589474 293.383125 
L 108.00689 294.112473 
L 111.424306 293.719747 
L 114.841722 294.336887 
L 118.259139 294.336887 
L 121.676555 294.53325 
L 125.093971 294.505198 
L 128.511388 294.757665 
L 131.928804 294.477147 
L 135.34622 294.729613 
L 138.763636 294.112473 
L 142.181053 294.925976 
L 145.598469 295.262598 
L 149.015885 295.066235 
L 152.433301 294.729613 
L 155.850718 293.60754 
L 159.268134 294.561302 
L 162.68555 294.196628 
L 166.102967 292.429363 
L 169.520383 291.559756 
L 172.937799 289.876646 
L 176.355215 285.19199 
L 179.772632 286.987307 
L 183.190048 283.845502 
L 186.607464 283.340569 
L 190.02488 273.690738 
L 193.442297 269.567118 
L 196.859713 277.982668 
L 200.277129 280.956163 
L 203.694545 282.218495 
L 207.111962 282.947843 
L 210.529378 282.807584 
L 213.946794 281.012266 
L 217.364211 280.507333 
L 220.781627 279.497467 
L 224.199043 277.814357 
L 227.616459 277.421632 
L 231.033876 274.167619 
L 234.451292 272.65282 
L 237.868708 270.605036 
L 241.286124 267.014402 
L 244.703541 264.629996 
L 248.120957 266.004536 
L 251.538373 266.425313 
L 254.955789 265.639862 
L 258.373206 266.53752 
L 261.790622 266.98635 
L 265.208038 263.676233 
L 268.625455 263.1713 
L 272.042871 259.328199 
L 275.460287 255.51315 
L 278.877703 255.737564 
L 282.29512 249.005124 
L 285.712536 243.843587 
L 289.129952 241.066455 
L 292.547368 237.195302 
L 295.964785 225.694051 
L 299.382201 217.250449 
L 302.799617 201.709733 
L 306.217034 176.322824 
L 309.63445 151.468899 
L 313.051866 122.379148 
L 316.469282 87.594874 
L 319.886699 53.932674 
L 323.304115 53.568 
L 326.721531 72.755454 
L 330.138947 98.198467 
L 333.556364 117.021248 
L 336.97378 131.13132 
L 340.391196 155.115637 
L 343.808612 166.672993 
L 347.226029 170.544146 
L 350.643445 173.601796 
L 354.060861 176.659446 
L 357.478278 179.32437 
L 360.895694 180.137873 
L 364.31311 172.732189 
L 367.730526 178.595022 
L 371.147943 177.388793 
L 374.565359 175.481269 
L 377.982775 173.882314 
L 381.400191 171.862582 
L 384.817608 177.893726 
L 388.235024 182.494227 
L 391.65244 200.279089 
L 395.069856 218.905507 
L 398.487273 230.350655 
" style="fill:none;stroke:#87ceeb;stroke-linecap:square;stroke-width:2;"/>
    <defs>
     <path d="M 0 2 
C 0.530406 2 1.03916 1.789267 1.414214 1.414214 
C 1.789267 1.03916 2 0.530406 2 0 
C 2 -0.530406 1.789267 -1.03916 1.414214 -1.414214 
C 1.03916 -1.789267 0.530406 -2 0 -2 
C -0.530406 -2 -1.03916 -1.789267 -1.414214 -1.414214 
C -1.789267 -1.03916 -2 -0.530406 -2 0 
C -2 0.530406 -1.789267 1.03916 -1.414214 1.414214 
C -1.03916 1.789267 -0.530406 2 0 2 
z
" id="m377ca2d542" style="stroke:#87ceeb;"/>
    </defs>
    <g clip-path="url(#pb23ccbf9c4)">
     <use style="fill:#0000ff;stroke:#87ceeb;" x="73.832727" xlink:href="#m377ca2d542" y="249.818628"/>
     <use style="fill:#0000ff;stroke:#87ceeb;" x="77.250144" xlink:href="#m377ca2d542" y="264.601944"/>
     <use style="fill:#0000ff;stroke:#87ceeb;" x="80.66756" xlink:href="#m377ca2d542" y="274.588397"/>
     <use style="fill:#0000ff;stroke:#87ceeb;" x="84.084976" xlink:href="#m377ca2d542" y="281.881873"/>
     <use style="fill:#0000ff;stroke:#87ceeb;" x="87.502392" xlink:href="#m377ca2d542" y="285.584715"/>
     <use style="fill:#0000ff;stroke:#87ceeb;" x="90.919809" xlink:href="#m377ca2d542" y="288.193536"/>
     <use style="fill:#0000ff;stroke:#87ceeb;" x="94.337225" xlink:href="#m377ca2d542" y="290.073009"/>
     <use style="fill:#0000ff;stroke:#87ceeb;" x="97.754641" xlink:href="#m377ca2d542" y="292.204948"/>
     <use style="fill:#0000ff;stroke:#87ceeb;" x="101.172057" xlink:href="#m377ca2d542" y="291.840274"/>
     <use style="fill:#0000ff;stroke:#87ceeb;" x="104.589474" xlink:href="#m377ca2d542" y="293.383125"/>
     <use style="fill:#0000ff;stroke:#87ceeb;" x="108.00689" xlink:href="#m377ca2d542" y="294.112473"/>
     <use style="fill:#0000ff;stroke:#87ceeb;" x="111.424306" xlink:href="#m377ca2d542" y="293.719747"/>
     <use style="fill:#0000ff;stroke:#87ceeb;" x="114.841722" xlink:href="#m377ca2d542" y="294.336887"/>
     <use style="fill:#0000ff;stroke:#87ceeb;" x="118.259139" xlink:href="#m377ca2d542" y="294.336887"/>
     <use style="fill:#0000ff;stroke:#87ceeb;" x="121.676555" xlink:href="#m377ca2d542" y="294.53325"/>
     <use style="fill:#0000ff;stroke:#87ceeb;" x="125.093971" xlink:href="#m377ca2d542" y="294.505198"/>
     <use style="fill:#0000ff;stroke:#87ceeb;" x="128.511388" xlink:href="#m377ca2d542" y="294.757665"/>
     <use style="fill:#0000ff;stroke:#87ceeb;" x="131.928804" xlink:href="#m377ca2d542" y="294.477147"/>
     <use style="fill:#0000ff;stroke:#87ceeb;" x="135.34622" xlink:href="#m377ca2d542" y="294.729613"/>
     <use style="fill:#0000ff;stroke:#87ceeb;" x="138.763636" xlink:href="#m377ca2d542" y="294.112473"/>
     <use style="fill:#0000ff;stroke:#87ceeb;" x="142.181053" xlink:href="#m377ca2d542" y="294.925976"/>
     <use style="fill:#0000ff;stroke:#87ceeb;" x="145.598469" xlink:href="#m377ca2d542" y="295.262598"/>
     <use style="fill:#0000ff;stroke:#87ceeb;" x="149.015885" xlink:href="#m377ca2d542" y="295.066235"/>
     <use style="fill:#0000ff;stroke:#87ceeb;" x="152.433301" xlink:href="#m377ca2d542" y="294.729613"/>
     <use style="fill:#0000ff;stroke:#87ceeb;" x="155.850718" xlink:href="#m377ca2d542" y="293.60754"/>
     <use style="fill:#0000ff;stroke:#87ceeb;" x="159.268134" xlink:href="#m377ca2d542" y="294.561302"/>
     <use style="fill:#0000ff;stroke:#87ceeb;" x="162.68555" xlink:href="#m377ca2d542" y="294.196628"/>
     <use style="fill:#0000ff;stroke:#87ceeb;" x="166.102967" xlink:href="#m377ca2d542" y="292.429363"/>
     <use style="fill:#0000ff;stroke:#87ceeb;" x="169.520383" xlink:href="#m377ca2d542" y="291.559756"/>
     <use style="fill:#0000ff;stroke:#87ceeb;" x="172.937799" xlink:href="#m377ca2d542" y="289.876646"/>
     <use style="fill:#0000ff;stroke:#87ceeb;" x="176.355215" xlink:href="#m377ca2d542" y="285.19199"/>
     <use style="fill:#0000ff;stroke:#87ceeb;" x="179.772632" xlink:href="#m377ca2d542" y="286.987307"/>
     <use style="fill:#0000ff;stroke:#87ceeb;" x="183.190048" xlink:href="#m377ca2d542" y="283.845502"/>
     <use style="fill:#0000ff;stroke:#87ceeb;" x="186.607464" xlink:href="#m377ca2d542" y="283.340569"/>
     <use style="fill:#0000ff;stroke:#87ceeb;" x="190.02488" xlink:href="#m377ca2d542" y="273.690738"/>
     <use style="fill:#0000ff;stroke:#87ceeb;" x="193.442297" xlink:href="#m377ca2d542" y="269.567118"/>
     <use style="fill:#0000ff;stroke:#87ceeb;" x="196.859713" xlink:href="#m377ca2d542" y="277.982668"/>
     <use style="fill:#0000ff;stroke:#87ceeb;" x="200.277129" xlink:href="#m377ca2d542" y="280.956163"/>
     <use style="fill:#0000ff;stroke:#87ceeb;" x="203.694545" xlink:href="#m377ca2d542" y="282.218495"/>
     <use style="fill:#0000ff;stroke:#87ceeb;" x="207.111962" xlink:href="#m377ca2d542" y="282.947843"/>
     <use style="fill:#0000ff;stroke:#87ceeb;" x="210.529378" xlink:href="#m377ca2d542" y="282.807584"/>
     <use style="fill:#0000ff;stroke:#87ceeb;" x="213.946794" xlink:href="#m377ca2d542" y="281.012266"/>
     <use style="fill:#0000ff;stroke:#87ceeb;" x="217.364211" xlink:href="#m377ca2d542" y="280.507333"/>
     <use style="fill:#0000ff;stroke:#87ceeb;" x="220.781627" xlink:href="#m377ca2d542" y="279.497467"/>
     <use style="fill:#0000ff;stroke:#87ceeb;" x="224.199043" xlink:href="#m377ca2d542" y="277.814357"/>
     <use style="fill:#0000ff;stroke:#87ceeb;" x="227.616459" xlink:href="#m377ca2d542" y="277.421632"/>
     <use style="fill:#0000ff;stroke:#87ceeb;" x="231.033876" xlink:href="#m377ca2d542" y="274.167619"/>
     <use style="fill:#0000ff;stroke:#87ceeb;" x="234.451292" xlink:href="#m377ca2d542" y="272.65282"/>
     <use style="fill:#0000ff;stroke:#87ceeb;" x="237.868708" xlink:href="#m377ca2d542" y="270.605036"/>
     <use style="fill:#0000ff;stroke:#87ceeb;" x="241.286124" xlink:href="#m377ca2d542" y="267.014402"/>
     <use style="fill:#0000ff;stroke:#87ceeb;" x="244.703541" xlink:href="#m377ca2d542" y="264.629996"/>
     <use style="fill:#0000ff;stroke:#87ceeb;" x="248.120957" xlink:href="#m377ca2d542" y="266.004536"/>
     <use style="fill:#0000ff;stroke:#87ceeb;" x="251.538373" xlink:href="#m377ca2d542" y="266.425313"/>
     <use style="fill:#0000ff;stroke:#87ceeb;" x="254.955789" xlink:href="#m377ca2d542" y="265.639862"/>
     <use style="fill:#0000ff;stroke:#87ceeb;" x="258.373206" xlink:href="#m377ca2d542" y="266.53752"/>
     <use style="fill:#0000ff;stroke:#87ceeb;" x="261.790622" xlink:href="#m377ca2d542" y="266.98635"/>
     <use style="fill:#0000ff;stroke:#87ceeb;" x="265.208038" xlink:href="#m377ca2d542" y="263.676233"/>
     <use style="fill:#0000ff;stroke:#87ceeb;" x="268.625455" xlink:href="#m377ca2d542" y="263.1713"/>
     <use style="fill:#0000ff;stroke:#87ceeb;" x="272.042871" xlink:href="#m377ca2d542" y="259.328199"/>
     <use style="fill:#0000ff;stroke:#87ceeb;" x="275.460287" xlink:href="#m377ca2d542" y="255.51315"/>
     <use style="fill:#0000ff;stroke:#87ceeb;" x="278.877703" xlink:href="#m377ca2d542" y="255.737564"/>
     <use style="fill:#0000ff;stroke:#87ceeb;" x="282.29512" xlink:href="#m377ca2d542" y="249.005124"/>
     <use style="fill:#0000ff;stroke:#87ceeb;" x="285.712536" xlink:href="#m377ca2d542" y="243.843587"/>
     <use style="fill:#0000ff;stroke:#87ceeb;" x="289.129952" xlink:href="#m377ca2d542" y="241.066455"/>
     <use style="fill:#0000ff;stroke:#87ceeb;" x="292.547368" xlink:href="#m377ca2d542" y="237.195302"/>
     <use style="fill:#0000ff;stroke:#87ceeb;" x="295.964785" xlink:href="#m377ca2d542" y="225.694051"/>
     <use style="fill:#0000ff;stroke:#87ceeb;" x="299.382201" xlink:href="#m377ca2d542" y="217.250449"/>
     <use style="fill:#0000ff;stroke:#87ceeb;" x="302.799617" xlink:href="#m377ca2d542" y="201.709733"/>
     <use style="fill:#0000ff;stroke:#87ceeb;" x="306.217034" xlink:href="#m377ca2d542" y="176.322824"/>
     <use style="fill:#0000ff;stroke:#87ceeb;" x="309.63445" xlink:href="#m377ca2d542" y="151.468899"/>
     <use style="fill:#0000ff;stroke:#87ceeb;" x="313.051866" xlink:href="#m377ca2d542" y="122.379148"/>
     <use style="fill:#0000ff;stroke:#87ceeb;" x="316.469282" xlink:href="#m377ca2d542" y="87.594874"/>
     <use style="fill:#0000ff;stroke:#87ceeb;" x="319.886699" xlink:href="#m377ca2d542" y="53.932674"/>
     <use style="fill:#0000ff;stroke:#87ceeb;" x="323.304115" xlink:href="#m377ca2d542" y="53.568"/>
     <use style="fill:#0000ff;stroke:#87ceeb;" x="326.721531" xlink:href="#m377ca2d542" y="72.755454"/>
     <use style="fill:#0000ff;stroke:#87ceeb;" x="330.138947" xlink:href="#m377ca2d542" y="98.198467"/>
     <use style="fill:#0000ff;stroke:#87ceeb;" x="333.556364" xlink:href="#m377ca2d542" y="117.021248"/>
     <use style="fill:#0000ff;stroke:#87ceeb;" x="336.97378" xlink:href="#m377ca2d542" y="131.13132"/>
     <use style="fill:#0000ff;stroke:#87ceeb;" x="340.391196" xlink:href="#m377ca2d542" y="155.115637"/>
     <use style="fill:#0000ff;stroke:#87ceeb;" x="343.808612" xlink:href="#m377ca2d542" y="166.672993"/>
     <use style="fill:#0000ff;stroke:#87ceeb;" x="347.226029" xlink:href="#m377ca2d542" y="170.544146"/>
     <use style="fill:#0000ff;stroke:#87ceeb;" x="350.643445" xlink:href="#m377ca2d542" y="173.601796"/>
     <use style="fill:#0000ff;stroke:#87ceeb;" x="354.060861" xlink:href="#m377ca2d542" y="176.659446"/>
     <use style="fill:#0000ff;stroke:#87ceeb;" x="357.478278" xlink:href="#m377ca2d542" y="179.32437"/>
     <use style="fill:#0000ff;stroke:#87ceeb;" x="360.895694" xlink:href="#m377ca2d542" y="180.137873"/>
     <use style="fill:#0000ff;stroke:#87ceeb;" x="364.31311" xlink:href="#m377ca2d542" y="172.732189"/>
     <use style="fill:#0000ff;stroke:#87ceeb;" x="367.730526" xlink:href="#m377ca2d542" y="178.595022"/>
     <use style="fill:#0000ff;stroke:#87ceeb;" x="371.147943" xlink:href="#m377ca2d542" y="177.388793"/>
     <use style="fill:#0000ff;stroke:#87ceeb;" x="374.565359" xlink:href="#m377ca2d542" y="175.481269"/>
     <use style="fill:#0000ff;stroke:#87ceeb;" x="377.982775" xlink:href="#m377ca2d542" y="173.882314"/>
     <use style="fill:#0000ff;stroke:#87ceeb;" x="381.400191" xlink:href="#m377ca2d542" y="171.862582"/>
     <use style="fill:#0000ff;stroke:#87ceeb;" x="384.817608" xlink:href="#m377ca2d542" y="177.893726"/>
     <use style="fill:#0000ff;stroke:#87ceeb;" x="388.235024" xlink:href="#m377ca2d542" y="182.494227"/>
     <use style="fill:#0000ff;stroke:#87ceeb;" x="391.65244" xlink:href="#m377ca2d542" y="200.279089"/>
     <use style="fill:#0000ff;stroke:#87ceeb;" x="395.069856" xlink:href="#m377ca2d542" y="218.905507"/>
     <use style="fill:#0000ff;stroke:#87ceeb;" x="398.487273" xlink:href="#m377ca2d542" y="230.350655"/>
    </g>
   </g>
   <g id="line2d_16">
    <path clip-path="url(#pb23ccbf9c4)" d="M 73.832727 275.804096 
L 77.250144 280.592072 
L 80.66756 284.316054 
L 84.084976 285.912047 
L 87.502392 288.040036 
L 90.919809 289.636028 
L 94.337225 291.232021 
L 97.754641 292.296016 
L 101.172057 293.36001 
L 104.589474 293.892008 
L 108.00689 293.892008 
L 111.424306 294.424005 
L 114.841722 294.424005 
L 118.259139 294.424005 
L 121.676555 294.424005 
L 125.093971 294.424005 
L 128.511388 294.424005 
L 131.928804 294.424005 
L 135.34622 293.892008 
L 138.763636 293.892008 
L 142.181053 293.36001 
L 145.598469 292.828013 
L 149.015885 291.764018 
L 152.433301 289.636028 
L 155.850718 286.444044 
L 159.268134 284.316054 
L 162.68555 278.464083 
L 166.102967 270.484122 
L 169.520383 259.312176 
L 172.937799 238.032279 
L 176.355215 211.432409 
L 179.772632 182.704548 
L 183.190048 139.080761 
L 186.607464 117.268867 
L 190.02488 84.817024 
L 193.442297 78.965053 
L 196.859713 71.517089 
L 200.277129 106.096921 
L 203.694545 119.928854 
L 207.111962 137.484768 
L 210.529378 151.316701 
L 213.946794 193.876494 
L 217.364211 213.560398 
L 220.781627 223.668349 
L 224.199043 231.64831 
L 227.616459 241.224264 
L 231.033876 242.288259 
L 234.451292 241.756261 
L 237.868708 236.968285 
L 241.286124 239.628272 
L 244.703541 235.90429 
L 248.120957 230.052318 
L 251.538373 226.860334 
L 254.955789 232.712305 
L 258.373206 228.456326 
L 261.790622 230.584316 
L 265.208038 228.988323 
L 268.625455 237.500282 
L 272.042871 240.160269 
L 275.460287 237.500282 
L 278.877703 236.436287 
L 282.29512 241.224264 
L 285.712536 243.352254 
L 289.129952 241.756261 
L 292.547368 241.224264 
L 295.964785 244.416248 
L 299.382201 244.416248 
L 302.799617 240.160269 
L 306.217034 238.564277 
L 309.63445 237.500282 
L 313.051866 230.584316 
L 316.469282 219.41237 
L 319.886699 212.496404 
L 323.304115 211.432409 
L 326.721531 213.028401 
L 330.138947 211.432409 
L 333.556364 212.496404 
L 336.97378 215.156391 
L 340.391196 223.668349 
L 343.808612 230.584316 
L 347.226029 238.032279 
L 350.643445 243.352254 
L 354.060861 245.480243 
L 357.478278 250.800217 
L 360.895694 254.524199 
L 364.31311 255.588194 
L 367.730526 257.184186 
L 371.147943 257.184186 
L 374.565359 259.844173 
L 377.982775 258.780179 
L 381.400191 260.376171 
L 384.817608 260.908168 
L 388.235024 264.63215 
L 391.65244 265.696145 
L 395.069856 268.356132 
L 398.487273 272.080114 
" style="fill:none;stroke:#808000;stroke-linecap:square;stroke-width:2;"/>
    <defs>
     <path d="M 0 2 
C 0.530406 2 1.03916 1.789267 1.414214 1.414214 
C 1.789267 1.03916 2 0.530406 2 0 
C 2 -0.530406 1.789267 -1.03916 1.414214 -1.414214 
C 1.03916 -1.789267 0.530406 -2 0 -2 
C -0.530406 -2 -1.03916 -1.789267 -1.414214 -1.414214 
C -1.789267 -1.03916 -2 -0.530406 -2 0 
C -2 0.530406 -1.789267 1.03916 -1.414214 1.414214 
C -1.03916 1.789267 -0.530406 2 0 2 
z
" id="m7735ae1826" style="stroke:#808000;"/>
    </defs>
    <g clip-path="url(#pb23ccbf9c4)">
     <use style="fill:#808000;stroke:#808000;" x="73.832727" xlink:href="#m7735ae1826" y="275.804096"/>
     <use style="fill:#808000;stroke:#808000;" x="77.250144" xlink:href="#m7735ae1826" y="280.592072"/>
     <use style="fill:#808000;stroke:#808000;" x="80.66756" xlink:href="#m7735ae1826" y="284.316054"/>
     <use style="fill:#808000;stroke:#808000;" x="84.084976" xlink:href="#m7735ae1826" y="285.912047"/>
     <use style="fill:#808000;stroke:#808000;" x="87.502392" xlink:href="#m7735ae1826" y="288.040036"/>
     <use style="fill:#808000;stroke:#808000;" x="90.919809" xlink:href="#m7735ae1826" y="289.636028"/>
     <use style="fill:#808000;stroke:#808000;" x="94.337225" xlink:href="#m7735ae1826" y="291.232021"/>
     <use style="fill:#808000;stroke:#808000;" x="97.754641" xlink:href="#m7735ae1826" y="292.296016"/>
     <use style="fill:#808000;stroke:#808000;" x="101.172057" xlink:href="#m7735ae1826" y="293.36001"/>
     <use style="fill:#808000;stroke:#808000;" x="104.589474" xlink:href="#m7735ae1826" y="293.892008"/>
     <use style="fill:#808000;stroke:#808000;" x="108.00689" xlink:href="#m7735ae1826" y="293.892008"/>
     <use style="fill:#808000;stroke:#808000;" x="111.424306" xlink:href="#m7735ae1826" y="294.424005"/>
     <use style="fill:#808000;stroke:#808000;" x="114.841722" xlink:href="#m7735ae1826" y="294.424005"/>
     <use style="fill:#808000;stroke:#808000;" x="118.259139" xlink:href="#m7735ae1826" y="294.424005"/>
     <use style="fill:#808000;stroke:#808000;" x="121.676555" xlink:href="#m7735ae1826" y="294.424005"/>
     <use style="fill:#808000;stroke:#808000;" x="125.093971" xlink:href="#m7735ae1826" y="294.424005"/>
     <use style="fill:#808000;stroke:#808000;" x="128.511388" xlink:href="#m7735ae1826" y="294.424005"/>
     <use style="fill:#808000;stroke:#808000;" x="131.928804" xlink:href="#m7735ae1826" y="294.424005"/>
     <use style="fill:#808000;stroke:#808000;" x="135.34622" xlink:href="#m7735ae1826" y="293.892008"/>
     <use style="fill:#808000;stroke:#808000;" x="138.763636" xlink:href="#m7735ae1826" y="293.892008"/>
     <use style="fill:#808000;stroke:#808000;" x="142.181053" xlink:href="#m7735ae1826" y="293.36001"/>
     <use style="fill:#808000;stroke:#808000;" x="145.598469" xlink:href="#m7735ae1826" y="292.828013"/>
     <use style="fill:#808000;stroke:#808000;" x="149.015885" xlink:href="#m7735ae1826" y="291.764018"/>
     <use style="fill:#808000;stroke:#808000;" x="152.433301" xlink:href="#m7735ae1826" y="289.636028"/>
     <use style="fill:#808000;stroke:#808000;" x="155.850718" xlink:href="#m7735ae1826" y="286.444044"/>
     <use style="fill:#808000;stroke:#808000;" x="159.268134" xlink:href="#m7735ae1826" y="284.316054"/>
     <use style="fill:#808000;stroke:#808000;" x="162.68555" xlink:href="#m7735ae1826" y="278.464083"/>
     <use style="fill:#808000;stroke:#808000;" x="166.102967" xlink:href="#m7735ae1826" y="270.484122"/>
     <use style="fill:#808000;stroke:#808000;" x="169.520383" xlink:href="#m7735ae1826" y="259.312176"/>
     <use style="fill:#808000;stroke:#808000;" x="172.937799" xlink:href="#m7735ae1826" y="238.032279"/>
     <use style="fill:#808000;stroke:#808000;" x="176.355215" xlink:href="#m7735ae1826" y="211.432409"/>
     <use style="fill:#808000;stroke:#808000;" x="179.772632" xlink:href="#m7735ae1826" y="182.704548"/>
     <use style="fill:#808000;stroke:#808000;" x="183.190048" xlink:href="#m7735ae1826" y="139.080761"/>
     <use style="fill:#808000;stroke:#808000;" x="186.607464" xlink:href="#m7735ae1826" y="117.268867"/>
     <use style="fill:#808000;stroke:#808000;" x="190.02488" xlink:href="#m7735ae1826" y="84.817024"/>
     <use style="fill:#808000;stroke:#808000;" x="193.442297" xlink:href="#m7735ae1826" y="78.965053"/>
     <use style="fill:#808000;stroke:#808000;" x="196.859713" xlink:href="#m7735ae1826" y="71.517089"/>
     <use style="fill:#808000;stroke:#808000;" x="200.277129" xlink:href="#m7735ae1826" y="106.096921"/>
     <use style="fill:#808000;stroke:#808000;" x="203.694545" xlink:href="#m7735ae1826" y="119.928854"/>
     <use style="fill:#808000;stroke:#808000;" x="207.111962" xlink:href="#m7735ae1826" y="137.484768"/>
     <use style="fill:#808000;stroke:#808000;" x="210.529378" xlink:href="#m7735ae1826" y="151.316701"/>
     <use style="fill:#808000;stroke:#808000;" x="213.946794" xlink:href="#m7735ae1826" y="193.876494"/>
     <use style="fill:#808000;stroke:#808000;" x="217.364211" xlink:href="#m7735ae1826" y="213.560398"/>
     <use style="fill:#808000;stroke:#808000;" x="220.781627" xlink:href="#m7735ae1826" y="223.668349"/>
     <use style="fill:#808000;stroke:#808000;" x="224.199043" xlink:href="#m7735ae1826" y="231.64831"/>
     <use style="fill:#808000;stroke:#808000;" x="227.616459" xlink:href="#m7735ae1826" y="241.224264"/>
     <use style="fill:#808000;stroke:#808000;" x="231.033876" xlink:href="#m7735ae1826" y="242.288259"/>
     <use style="fill:#808000;stroke:#808000;" x="234.451292" xlink:href="#m7735ae1826" y="241.756261"/>
     <use style="fill:#808000;stroke:#808000;" x="237.868708" xlink:href="#m7735ae1826" y="236.968285"/>
     <use style="fill:#808000;stroke:#808000;" x="241.286124" xlink:href="#m7735ae1826" y="239.628272"/>
     <use style="fill:#808000;stroke:#808000;" x="244.703541" xlink:href="#m7735ae1826" y="235.90429"/>
     <use style="fill:#808000;stroke:#808000;" x="248.120957" xlink:href="#m7735ae1826" y="230.052318"/>
     <use style="fill:#808000;stroke:#808000;" x="251.538373" xlink:href="#m7735ae1826" y="226.860334"/>
     <use style="fill:#808000;stroke:#808000;" x="254.955789" xlink:href="#m7735ae1826" y="232.712305"/>
     <use style="fill:#808000;stroke:#808000;" x="258.373206" xlink:href="#m7735ae1826" y="228.456326"/>
     <use style="fill:#808000;stroke:#808000;" x="261.790622" xlink:href="#m7735ae1826" y="230.584316"/>
     <use style="fill:#808000;stroke:#808000;" x="265.208038" xlink:href="#m7735ae1826" y="228.988323"/>
     <use style="fill:#808000;stroke:#808000;" x="268.625455" xlink:href="#m7735ae1826" y="237.500282"/>
     <use style="fill:#808000;stroke:#808000;" x="272.042871" xlink:href="#m7735ae1826" y="240.160269"/>
     <use style="fill:#808000;stroke:#808000;" x="275.460287" xlink:href="#m7735ae1826" y="237.500282"/>
     <use style="fill:#808000;stroke:#808000;" x="278.877703" xlink:href="#m7735ae1826" y="236.436287"/>
     <use style="fill:#808000;stroke:#808000;" x="282.29512" xlink:href="#m7735ae1826" y="241.224264"/>
     <use style="fill:#808000;stroke:#808000;" x="285.712536" xlink:href="#m7735ae1826" y="243.352254"/>
     <use style="fill:#808000;stroke:#808000;" x="289.129952" xlink:href="#m7735ae1826" y="241.756261"/>
     <use style="fill:#808000;stroke:#808000;" x="292.547368" xlink:href="#m7735ae1826" y="241.224264"/>
     <use style="fill:#808000;stroke:#808000;" x="295.964785" xlink:href="#m7735ae1826" y="244.416248"/>
     <use style="fill:#808000;stroke:#808000;" x="299.382201" xlink:href="#m7735ae1826" y="244.416248"/>
     <use style="fill:#808000;stroke:#808000;" x="302.799617" xlink:href="#m7735ae1826" y="240.160269"/>
     <use style="fill:#808000;stroke:#808000;" x="306.217034" xlink:href="#m7735ae1826" y="238.564277"/>
     <use style="fill:#808000;stroke:#808000;" x="309.63445" xlink:href="#m7735ae1826" y="237.500282"/>
     <use style="fill:#808000;stroke:#808000;" x="313.051866" xlink:href="#m7735ae1826" y="230.584316"/>
     <use style="fill:#808000;stroke:#808000;" x="316.469282" xlink:href="#m7735ae1826" y="219.41237"/>
     <use style="fill:#808000;stroke:#808000;" x="319.886699" xlink:href="#m7735ae1826" y="212.496404"/>
     <use style="fill:#808000;stroke:#808000;" x="323.304115" xlink:href="#m7735ae1826" y="211.432409"/>
     <use style="fill:#808000;stroke:#808000;" x="326.721531" xlink:href="#m7735ae1826" y="213.028401"/>
     <use style="fill:#808000;stroke:#808000;" x="330.138947" xlink:href="#m7735ae1826" y="211.432409"/>
     <use style="fill:#808000;stroke:#808000;" x="333.556364" xlink:href="#m7735ae1826" y="212.496404"/>
     <use style="fill:#808000;stroke:#808000;" x="336.97378" xlink:href="#m7735ae1826" y="215.156391"/>
     <use style="fill:#808000;stroke:#808000;" x="340.391196" xlink:href="#m7735ae1826" y="223.668349"/>
     <use style="fill:#808000;stroke:#808000;" x="343.808612" xlink:href="#m7735ae1826" y="230.584316"/>
     <use style="fill:#808000;stroke:#808000;" x="347.226029" xlink:href="#m7735ae1826" y="238.032279"/>
     <use style="fill:#808000;stroke:#808000;" x="350.643445" xlink:href="#m7735ae1826" y="243.352254"/>
     <use style="fill:#808000;stroke:#808000;" x="354.060861" xlink:href="#m7735ae1826" y="245.480243"/>
     <use style="fill:#808000;stroke:#808000;" x="357.478278" xlink:href="#m7735ae1826" y="250.800217"/>
     <use style="fill:#808000;stroke:#808000;" x="360.895694" xlink:href="#m7735ae1826" y="254.524199"/>
     <use style="fill:#808000;stroke:#808000;" x="364.31311" xlink:href="#m7735ae1826" y="255.588194"/>
     <use style="fill:#808000;stroke:#808000;" x="367.730526" xlink:href="#m7735ae1826" y="257.184186"/>
     <use style="fill:#808000;stroke:#808000;" x="371.147943" xlink:href="#m7735ae1826" y="257.184186"/>
     <use style="fill:#808000;stroke:#808000;" x="374.565359" xlink:href="#m7735ae1826" y="259.844173"/>
     <use style="fill:#808000;stroke:#808000;" x="377.982775" xlink:href="#m7735ae1826" y="258.780179"/>
     <use style="fill:#808000;stroke:#808000;" x="381.400191" xlink:href="#m7735ae1826" y="260.376171"/>
     <use style="fill:#808000;stroke:#808000;" x="384.817608" xlink:href="#m7735ae1826" y="260.908168"/>
     <use style="fill:#808000;stroke:#808000;" x="388.235024" xlink:href="#m7735ae1826" y="264.63215"/>
     <use style="fill:#808000;stroke:#808000;" x="391.65244" xlink:href="#m7735ae1826" y="265.696145"/>
     <use style="fill:#808000;stroke:#808000;" x="395.069856" xlink:href="#m7735ae1826" y="268.356132"/>
     <use style="fill:#808000;stroke:#808000;" x="398.487273" xlink:href="#m7735ae1826" y="272.080114"/>
    </g>
   </g>
   <g id="line2d_17">
    <path clip-path="url(#pb23ccbf9c4)" d="M 73.832727 283.784057 
L 77.250144 286.976041 
L 80.66756 289.104031 
L 84.084976 291.232021 
L 87.502392 292.296016 
L 90.919809 293.36001 
L 94.337225 293.892008 
L 97.754641 294.424005 
L 101.172057 294.424005 
L 104.589474 294.956003 
L 108.00689 294.956003 
L 111.424306 294.956003 
L 114.841722 295.488 
L 118.259139 295.488 
L 121.676555 295.488 
L 125.093971 294.956003 
L 128.511388 295.488 
L 131.928804 295.488 
L 135.34622 295.488 
L 138.763636 294.956003 
L 142.181053 294.424005 
L 145.598469 294.956003 
L 149.015885 294.424005 
L 152.433301 293.36001 
L 155.850718 292.828013 
L 159.268134 291.764018 
L 162.68555 286.444044 
L 166.102967 277.932085 
L 169.520383 261.440166 
L 172.937799 254.524199 
L 176.355215 234.840295 
L 179.772632 212.496404 
L 183.190048 193.344497 
L 186.607464 177.384574 
L 190.02488 138.548763 
L 193.442297 134.292784 
L 196.859713 143.33674 
L 200.277129 185.896533 
L 203.694545 206.644432 
L 207.111962 216.220385 
L 210.529378 218.880373 
L 213.946794 234.308298 
L 217.364211 234.308298 
L 220.781627 234.308298 
L 224.199043 232.180308 
L 227.616459 240.692266 
L 231.033876 239.096274 
L 234.451292 235.90429 
L 237.868708 230.052318 
L 241.286124 228.988323 
L 244.703541 224.732344 
L 248.120957 217.816378 
L 251.538373 213.560398 
L 254.955789 223.136352 
L 258.373206 223.668349 
L 261.790622 225.796339 
L 265.208038 225.264341 
L 268.625455 234.840295 
L 272.042871 233.244303 
L 275.460287 231.64831 
L 278.877703 226.860334 
L 282.29512 233.244303 
L 285.712536 228.456326 
L 289.129952 226.328336 
L 292.547368 224.200347 
L 295.964785 225.796339 
L 299.382201 221.008362 
L 302.799617 216.220385 
L 306.217034 202.92045 
L 309.63445 192.812499 
L 313.051866 175.788582 
L 316.469282 161.956649 
L 319.886699 147.592719 
L 323.304115 143.868737 
L 326.721531 157.168673 
L 330.138947 168.340618 
L 333.556364 176.852577 
L 336.97378 188.024523 
L 340.391196 200.260463 
L 343.808612 209.836417 
L 347.226029 218.348375 
L 350.643445 231.116313 
L 354.060861 236.436287 
L 357.478278 240.692266 
L 360.895694 244.948246 
L 364.31311 247.076235 
L 367.730526 250.26822 
L 371.147943 250.26822 
L 374.565359 252.39621 
L 377.982775 254.524199 
L 381.400191 257.716184 
L 384.817608 261.440166 
L 388.235024 265.696145 
L 391.65244 270.484122 
L 395.069856 274.208103 
L 398.487273 278.99608 
" style="fill:none;stroke:#000000;stroke-linecap:square;stroke-width:4;"/>
    <defs>
     <path d="M 0 2 
C 0.530406 2 1.03916 1.789267 1.414214 1.414214 
C 1.789267 1.03916 2 0.530406 2 0 
C 2 -0.530406 1.789267 -1.03916 1.414214 -1.414214 
C 1.03916 -1.789267 0.530406 -2 0 -2 
C -0.530406 -2 -1.03916 -1.789267 -1.414214 -1.414214 
C -1.789267 -1.03916 -2 -0.530406 -2 0 
C -2 0.530406 -1.789267 1.03916 -1.414214 1.414214 
C -1.03916 1.789267 -0.530406 2 0 2 
z
" id="m3baffda493" style="stroke:#000000;"/>
    </defs>
    <g clip-path="url(#pb23ccbf9c4)">
     <use style="stroke:#000000;" x="73.832727" xlink:href="#m3baffda493" y="283.784057"/>
     <use style="stroke:#000000;" x="77.250144" xlink:href="#m3baffda493" y="286.976041"/>
     <use style="stroke:#000000;" x="80.66756" xlink:href="#m3baffda493" y="289.104031"/>
     <use style="stroke:#000000;" x="84.084976" xlink:href="#m3baffda493" y="291.232021"/>
     <use style="stroke:#000000;" x="87.502392" xlink:href="#m3baffda493" y="292.296016"/>
     <use style="stroke:#000000;" x="90.919809" xlink:href="#m3baffda493" y="293.36001"/>
     <use style="stroke:#000000;" x="94.337225" xlink:href="#m3baffda493" y="293.892008"/>
     <use style="stroke:#000000;" x="97.754641" xlink:href="#m3baffda493" y="294.424005"/>
     <use style="stroke:#000000;" x="101.172057" xlink:href="#m3baffda493" y="294.424005"/>
     <use style="stroke:#000000;" x="104.589474" xlink:href="#m3baffda493" y="294.956003"/>
     <use style="stroke:#000000;" x="108.00689" xlink:href="#m3baffda493" y="294.956003"/>
     <use style="stroke:#000000;" x="111.424306" xlink:href="#m3baffda493" y="294.956003"/>
     <use style="stroke:#000000;" x="114.841722" xlink:href="#m3baffda493" y="295.488"/>
     <use style="stroke:#000000;" x="118.259139" xlink:href="#m3baffda493" y="295.488"/>
     <use style="stroke:#000000;" x="121.676555" xlink:href="#m3baffda493" y="295.488"/>
     <use style="stroke:#000000;" x="125.093971" xlink:href="#m3baffda493" y="294.956003"/>
     <use style="stroke:#000000;" x="128.511388" xlink:href="#m3baffda493" y="295.488"/>
     <use style="stroke:#000000;" x="131.928804" xlink:href="#m3baffda493" y="295.488"/>
     <use style="stroke:#000000;" x="135.34622" xlink:href="#m3baffda493" y="295.488"/>
     <use style="stroke:#000000;" x="138.763636" xlink:href="#m3baffda493" y="294.956003"/>
     <use style="stroke:#000000;" x="142.181053" xlink:href="#m3baffda493" y="294.424005"/>
     <use style="stroke:#000000;" x="145.598469" xlink:href="#m3baffda493" y="294.956003"/>
     <use style="stroke:#000000;" x="149.015885" xlink:href="#m3baffda493" y="294.424005"/>
     <use style="stroke:#000000;" x="152.433301" xlink:href="#m3baffda493" y="293.36001"/>
     <use style="stroke:#000000;" x="155.850718" xlink:href="#m3baffda493" y="292.828013"/>
     <use style="stroke:#000000;" x="159.268134" xlink:href="#m3baffda493" y="291.764018"/>
     <use style="stroke:#000000;" x="162.68555" xlink:href="#m3baffda493" y="286.444044"/>
     <use style="stroke:#000000;" x="166.102967" xlink:href="#m3baffda493" y="277.932085"/>
     <use style="stroke:#000000;" x="169.520383" xlink:href="#m3baffda493" y="261.440166"/>
     <use style="stroke:#000000;" x="172.937799" xlink:href="#m3baffda493" y="254.524199"/>
     <use style="stroke:#000000;" x="176.355215" xlink:href="#m3baffda493" y="234.840295"/>
     <use style="stroke:#000000;" x="179.772632" xlink:href="#m3baffda493" y="212.496404"/>
     <use style="stroke:#000000;" x="183.190048" xlink:href="#m3baffda493" y="193.344497"/>
     <use style="stroke:#000000;" x="186.607464" xlink:href="#m3baffda493" y="177.384574"/>
     <use style="stroke:#000000;" x="190.02488" xlink:href="#m3baffda493" y="138.548763"/>
     <use style="stroke:#000000;" x="193.442297" xlink:href="#m3baffda493" y="134.292784"/>
     <use style="stroke:#000000;" x="196.859713" xlink:href="#m3baffda493" y="143.33674"/>
     <use style="stroke:#000000;" x="200.277129" xlink:href="#m3baffda493" y="185.896533"/>
     <use style="stroke:#000000;" x="203.694545" xlink:href="#m3baffda493" y="206.644432"/>
     <use style="stroke:#000000;" x="207.111962" xlink:href="#m3baffda493" y="216.220385"/>
     <use style="stroke:#000000;" x="210.529378" xlink:href="#m3baffda493" y="218.880373"/>
     <use style="stroke:#000000;" x="213.946794" xlink:href="#m3baffda493" y="234.308298"/>
     <use style="stroke:#000000;" x="217.364211" xlink:href="#m3baffda493" y="234.308298"/>
     <use style="stroke:#000000;" x="220.781627" xlink:href="#m3baffda493" y="234.308298"/>
     <use style="stroke:#000000;" x="224.199043" xlink:href="#m3baffda493" y="232.180308"/>
     <use style="stroke:#000000;" x="227.616459" xlink:href="#m3baffda493" y="240.692266"/>
     <use style="stroke:#000000;" x="231.033876" xlink:href="#m3baffda493" y="239.096274"/>
     <use style="stroke:#000000;" x="234.451292" xlink:href="#m3baffda493" y="235.90429"/>
     <use style="stroke:#000000;" x="237.868708" xlink:href="#m3baffda493" y="230.052318"/>
     <use style="stroke:#000000;" x="241.286124" xlink:href="#m3baffda493" y="228.988323"/>
     <use style="stroke:#000000;" x="244.703541" xlink:href="#m3baffda493" y="224.732344"/>
     <use style="stroke:#000000;" x="248.120957" xlink:href="#m3baffda493" y="217.816378"/>
     <use style="stroke:#000000;" x="251.538373" xlink:href="#m3baffda493" y="213.560398"/>
     <use style="stroke:#000000;" x="254.955789" xlink:href="#m3baffda493" y="223.136352"/>
     <use style="stroke:#000000;" x="258.373206" xlink:href="#m3baffda493" y="223.668349"/>
     <use style="stroke:#000000;" x="261.790622" xlink:href="#m3baffda493" y="225.796339"/>
     <use style="stroke:#000000;" x="265.208038" xlink:href="#m3baffda493" y="225.264341"/>
     <use style="stroke:#000000;" x="268.625455" xlink:href="#m3baffda493" y="234.840295"/>
     <use style="stroke:#000000;" x="272.042871" xlink:href="#m3baffda493" y="233.244303"/>
     <use style="stroke:#000000;" x="275.460287" xlink:href="#m3baffda493" y="231.64831"/>
     <use style="stroke:#000000;" x="278.877703" xlink:href="#m3baffda493" y="226.860334"/>
     <use style="stroke:#000000;" x="282.29512" xlink:href="#m3baffda493" y="233.244303"/>
     <use style="stroke:#000000;" x="285.712536" xlink:href="#m3baffda493" y="228.456326"/>
     <use style="stroke:#000000;" x="289.129952" xlink:href="#m3baffda493" y="226.328336"/>
     <use style="stroke:#000000;" x="292.547368" xlink:href="#m3baffda493" y="224.200347"/>
     <use style="stroke:#000000;" x="295.964785" xlink:href="#m3baffda493" y="225.796339"/>
     <use style="stroke:#000000;" x="299.382201" xlink:href="#m3baffda493" y="221.008362"/>
     <use style="stroke:#000000;" x="302.799617" xlink:href="#m3baffda493" y="216.220385"/>
     <use style="stroke:#000000;" x="306.217034" xlink:href="#m3baffda493" y="202.92045"/>
     <use style="stroke:#000000;" x="309.63445" xlink:href="#m3baffda493" y="192.812499"/>
     <use style="stroke:#000000;" x="313.051866" xlink:href="#m3baffda493" y="175.788582"/>
     <use style="stroke:#000000;" x="316.469282" xlink:href="#m3baffda493" y="161.956649"/>
     <use style="stroke:#000000;" x="319.886699" xlink:href="#m3baffda493" y="147.592719"/>
     <use style="stroke:#000000;" x="323.304115" xlink:href="#m3baffda493" y="143.868737"/>
     <use style="stroke:#000000;" x="326.721531" xlink:href="#m3baffda493" y="157.168673"/>
     <use style="stroke:#000000;" x="330.138947" xlink:href="#m3baffda493" y="168.340618"/>
     <use style="stroke:#000000;" x="333.556364" xlink:href="#m3baffda493" y="176.852577"/>
     <use style="stroke:#000000;" x="336.97378" xlink:href="#m3baffda493" y="188.024523"/>
     <use style="stroke:#000000;" x="340.391196" xlink:href="#m3baffda493" y="200.260463"/>
     <use style="stroke:#000000;" x="343.808612" xlink:href="#m3baffda493" y="209.836417"/>
     <use style="stroke:#000000;" x="347.226029" xlink:href="#m3baffda493" y="218.348375"/>
     <use style="stroke:#000000;" x="350.643445" xlink:href="#m3baffda493" y="231.116313"/>
     <use style="stroke:#000000;" x="354.060861" xlink:href="#m3baffda493" y="236.436287"/>
     <use style="stroke:#000000;" x="357.478278" xlink:href="#m3baffda493" y="240.692266"/>
     <use style="stroke:#000000;" x="360.895694" xlink:href="#m3baffda493" y="244.948246"/>
     <use style="stroke:#000000;" x="364.31311" xlink:href="#m3baffda493" y="247.076235"/>
     <use style="stroke:#000000;" x="367.730526" xlink:href="#m3baffda493" y="250.26822"/>
     <use style="stroke:#000000;" x="371.147943" xlink:href="#m3baffda493" y="250.26822"/>
     <use style="stroke:#000000;" x="374.565359" xlink:href="#m3baffda493" y="252.39621"/>
     <use style="stroke:#000000;" x="377.982775" xlink:href="#m3baffda493" y="254.524199"/>
     <use style="stroke:#000000;" x="381.400191" xlink:href="#m3baffda493" y="257.716184"/>
     <use style="stroke:#000000;" x="384.817608" xlink:href="#m3baffda493" y="261.440166"/>
     <use style="stroke:#000000;" x="388.235024" xlink:href="#m3baffda493" y="265.696145"/>
     <use style="stroke:#000000;" x="391.65244" xlink:href="#m3baffda493" y="270.484122"/>
     <use style="stroke:#000000;" x="395.069856" xlink:href="#m3baffda493" y="274.208103"/>
     <use style="stroke:#000000;" x="398.487273" xlink:href="#m3baffda493" y="278.99608"/>
    </g>
   </g>
   <g id="patch_3">
    <path d="M 57.6 307.584 
L 57.6 41.472 
" style="fill:none;stroke:#000000;stroke-linecap:square;stroke-linejoin:miter;stroke-width:0.8;"/>
   </g>
   <g id="patch_4">
    <path d="M 414.72 307.584 
L 414.72 41.472 
" style="fill:none;stroke:#000000;stroke-linecap:square;stroke-linejoin:miter;stroke-width:0.8;"/>
   </g>
   <g id="patch_5">
    <path d="M 57.6 307.584 
L 414.72 307.584 
" style="fill:none;stroke:#000000;stroke-linecap:square;stroke-linejoin:miter;stroke-width:0.8;"/>
   </g>
   <g id="patch_6">
    <path d="M 57.6 41.472 
L 414.72 41.472 
" style="fill:none;stroke:#000000;stroke-linecap:square;stroke-linejoin:miter;stroke-width:0.8;"/>
   </g>
   <g id="text_12">
    <!-- Data from ElaadNL -->
    <defs>
     <path d="M 19.671875 64.796875 
L 19.671875 8.109375 
L 31.59375 8.109375 
Q 46.6875 8.109375 53.6875 14.9375 
Q 60.6875 21.78125 60.6875 36.53125 
Q 60.6875 51.171875 53.6875 57.984375 
Q 46.6875 64.796875 31.59375 64.796875 
z
M 9.8125 72.90625 
L 30.078125 72.90625 
Q 51.265625 72.90625 61.171875 64.09375 
Q 71.09375 55.28125 71.09375 36.53125 
Q 71.09375 17.671875 61.125 8.828125 
Q 51.171875 0 30.078125 0 
L 9.8125 0 
z
" id="DejaVuSans-68"/>
     <path d="M 18.3125 70.21875 
L 18.3125 54.6875 
L 36.8125 54.6875 
L 36.8125 47.703125 
L 18.3125 47.703125 
L 18.3125 18.015625 
Q 18.3125 11.328125 20.140625 9.421875 
Q 21.96875 7.515625 27.59375 7.515625 
L 36.8125 7.515625 
L 36.8125 0 
L 27.59375 0 
Q 17.1875 0 13.234375 3.875 
Q 9.28125 7.765625 9.28125 18.015625 
L 9.28125 47.703125 
L 2.6875 47.703125 
L 2.6875 54.6875 
L 9.28125 54.6875 
L 9.28125 70.21875 
z
" id="DejaVuSans-116"/>
     <path d="M 9.8125 72.90625 
L 55.90625 72.90625 
L 55.90625 64.59375 
L 19.671875 64.59375 
L 19.671875 43.015625 
L 54.390625 43.015625 
L 54.390625 34.71875 
L 19.671875 34.71875 
L 19.671875 8.296875 
L 56.78125 8.296875 
L 56.78125 0 
L 9.8125 0 
z
" id="DejaVuSans-69"/>
     <path d="M 9.421875 75.984375 
L 18.40625 75.984375 
L 18.40625 0 
L 9.421875 0 
z
" id="DejaVuSans-108"/>
     <path d="M 9.8125 72.90625 
L 23.09375 72.90625 
L 55.421875 11.921875 
L 55.421875 72.90625 
L 64.984375 72.90625 
L 64.984375 0 
L 51.703125 0 
L 19.390625 60.984375 
L 19.390625 0 
L 9.8125 0 
z
" id="DejaVuSans-78"/>
     <path d="M 9.8125 72.90625 
L 19.671875 72.90625 
L 19.671875 8.296875 
L 55.171875 8.296875 
L 55.171875 0 
L 9.8125 0 
z
" id="DejaVuSans-76"/>
    </defs>
    <g transform="translate(73.832727 109.820903)scale(0.1 -0.1)">
     <use xlink:href="#DejaVuSans-68"/>
     <use x="77.001953" xlink:href="#DejaVuSans-97"/>
     <use x="138.28125" xlink:href="#DejaVuSans-116"/>
     <use x="177.490234" xlink:href="#DejaVuSans-97"/>
     <use x="238.769531" xlink:href="#DejaVuSans-32"/>
     <use x="270.556641" xlink:href="#DejaVuSans-102"/>
     <use x="305.761719" xlink:href="#DejaVuSans-114"/>
     <use x="346.84375" xlink:href="#DejaVuSans-111"/>
     <use x="408.025391" xlink:href="#DejaVuSans-109"/>
     <use x="505.4375" xlink:href="#DejaVuSans-32"/>
     <use x="537.224609" xlink:href="#DejaVuSans-69"/>
     <use x="600.408203" xlink:href="#DejaVuSans-108"/>
     <use x="628.191406" xlink:href="#DejaVuSans-97"/>
     <use x="689.470703" xlink:href="#DejaVuSans-97"/>
     <use x="750.75" xlink:href="#DejaVuSans-100"/>
     <use x="814.226562" xlink:href="#DejaVuSans-78"/>
     <use x="889.03125" xlink:href="#DejaVuSans-76"/>
    </g>
   </g>
   <g id="text_13">
    <!-- Arrival time (weekdays) -->
    <defs>
     <path d="M 34.1875 63.1875 
L 20.796875 26.90625 
L 47.609375 26.90625 
z
M 28.609375 72.90625 
L 39.796875 72.90625 
L 67.578125 0 
L 57.328125 0 
L 50.6875 18.703125 
L 17.828125 18.703125 
L 11.1875 0 
L 0.78125 0 
z
" id="DejaVuSans-65"/>
     <path d="M 2.984375 54.6875 
L 12.5 54.6875 
L 29.59375 8.796875 
L 46.6875 54.6875 
L 56.203125 54.6875 
L 35.6875 0 
L 23.484375 0 
z
" id="DejaVuSans-118"/>
     <path d="M 31 75.875 
Q 24.46875 64.65625 21.28125 53.65625 
Q 18.109375 42.671875 18.109375 31.390625 
Q 18.109375 20.125 21.3125 9.0625 
Q 24.515625 -2 31 -13.1875 
L 23.1875 -13.1875 
Q 15.875 -1.703125 12.234375 9.375 
Q 8.59375 20.453125 8.59375 31.390625 
Q 8.59375 42.28125 12.203125 53.3125 
Q 15.828125 64.359375 23.1875 75.875 
z
" id="DejaVuSans-40"/>
     <path d="M 4.203125 54.6875 
L 13.1875 54.6875 
L 24.421875 12.015625 
L 35.59375 54.6875 
L 46.1875 54.6875 
L 57.421875 12.015625 
L 68.609375 54.6875 
L 77.59375 54.6875 
L 63.28125 0 
L 52.6875 0 
L 40.921875 44.828125 
L 29.109375 0 
L 18.5 0 
z
" id="DejaVuSans-119"/>
     <path d="M 9.078125 75.984375 
L 18.109375 75.984375 
L 18.109375 31.109375 
L 44.921875 54.6875 
L 56.390625 54.6875 
L 27.390625 29.109375 
L 57.625 0 
L 45.90625 0 
L 18.109375 26.703125 
L 18.109375 0 
L 9.078125 0 
z
" id="DejaVuSans-107"/>
     <path d="M 44.28125 53.078125 
L 44.28125 44.578125 
Q 40.484375 46.53125 36.375 47.5 
Q 32.28125 48.484375 27.875 48.484375 
Q 21.1875 48.484375 17.84375 46.4375 
Q 14.5 44.390625 14.5 40.28125 
Q 14.5 37.15625 16.890625 35.375 
Q 19.28125 33.59375 26.515625 31.984375 
L 29.59375 31.296875 
Q 39.15625 29.25 43.1875 25.515625 
Q 47.21875 21.78125 47.21875 15.09375 
Q 47.21875 7.46875 41.1875 3.015625 
Q 35.15625 -1.421875 24.609375 -1.421875 
Q 20.21875 -1.421875 15.453125 -0.5625 
Q 10.6875 0.296875 5.421875 2 
L 5.421875 11.28125 
Q 10.40625 8.6875 15.234375 7.390625 
Q 20.0625 6.109375 24.8125 6.109375 
Q 31.15625 6.109375 34.5625 8.28125 
Q 37.984375 10.453125 37.984375 14.40625 
Q 37.984375 18.0625 35.515625 20.015625 
Q 33.0625 21.96875 24.703125 23.78125 
L 21.578125 24.515625 
Q 13.234375 26.265625 9.515625 29.90625 
Q 5.8125 33.546875 5.8125 39.890625 
Q 5.8125 47.609375 11.28125 51.796875 
Q 16.75 56 26.8125 56 
Q 31.78125 56 36.171875 55.265625 
Q 40.578125 54.546875 44.28125 53.078125 
z
" id="DejaVuSans-115"/>
     <path d="M 8.015625 75.875 
L 15.828125 75.875 
Q 23.140625 64.359375 26.78125 53.3125 
Q 30.421875 42.28125 30.421875 31.390625 
Q 30.421875 20.453125 26.78125 9.375 
Q 23.140625 -1.703125 15.828125 -13.1875 
L 8.015625 -13.1875 
Q 14.5 -2 17.703125 9.0625 
Q 20.90625 20.125 20.90625 31.390625 
Q 20.90625 42.671875 17.703125 53.65625 
Q 14.5 64.65625 8.015625 75.875 
z
" id="DejaVuSans-41"/>
    </defs>
    <g transform="translate(128.794219 35.472)scale(0.18 -0.18)">
     <use xlink:href="#DejaVuSans-65"/>
     <use x="68.408203" xlink:href="#DejaVuSans-114"/>
     <use x="109.505859" xlink:href="#DejaVuSans-114"/>
     <use x="150.619141" xlink:href="#DejaVuSans-105"/>
     <use x="178.402344" xlink:href="#DejaVuSans-118"/>
     <use x="237.582031" xlink:href="#DejaVuSans-97"/>
     <use x="298.861328" xlink:href="#DejaVuSans-108"/>
     <use x="326.644531" xlink:href="#DejaVuSans-32"/>
     <use x="358.431641" xlink:href="#DejaVuSans-116"/>
     <use x="397.640625" xlink:href="#DejaVuSans-105"/>
     <use x="425.423828" xlink:href="#DejaVuSans-109"/>
     <use x="522.835938" xlink:href="#DejaVuSans-101"/>
     <use x="584.359375" xlink:href="#DejaVuSans-32"/>
     <use x="616.146484" xlink:href="#DejaVuSans-40"/>
     <use x="655.160156" xlink:href="#DejaVuSans-119"/>
     <use x="736.947266" xlink:href="#DejaVuSans-101"/>
     <use x="798.470703" xlink:href="#DejaVuSans-101"/>
     <use x="859.994141" xlink:href="#DejaVuSans-107"/>
     <use x="917.904297" xlink:href="#DejaVuSans-100"/>
     <use x="981.380859" xlink:href="#DejaVuSans-97"/>
     <use x="1042.660156" xlink:href="#DejaVuSans-121"/>
     <use x="1101.839844" xlink:href="#DejaVuSans-115"/>
     <use x="1153.939453" xlink:href="#DejaVuSans-41"/>
    </g>
   </g>
   <g id="legend_1">
    <g id="patch_7">
     <path d="M 64.6 93.506375 
L 170.307813 93.506375 
Q 172.307813 93.506375 172.307813 91.506375 
L 172.307813 48.472 
Q 172.307813 46.472 170.307813 46.472 
L 64.6 46.472 
Q 62.6 46.472 62.6 48.472 
L 62.6 91.506375 
Q 62.6 93.506375 64.6 93.506375 
z
" style="fill:#ffffff;opacity:0.8;stroke:#cccccc;stroke-linejoin:miter;"/>
    </g>
    <g id="line2d_18">
     <path d="M 66.6 54.570438 
L 86.6 54.570438 
" style="fill:none;stroke:#87ceeb;stroke-linecap:square;stroke-width:2;"/>
    </g>
    <g id="line2d_19">
     <g>
      <use style="fill:#0000ff;stroke:#87ceeb;" x="76.6" xlink:href="#m377ca2d542" y="54.570438"/>
     </g>
    </g>
    <g id="text_14">
     <!-- At home -->
     <defs>
      <path d="M 54.890625 33.015625 
L 54.890625 0 
L 45.90625 0 
L 45.90625 32.71875 
Q 45.90625 40.484375 42.875 44.328125 
Q 39.84375 48.1875 33.796875 48.1875 
Q 26.515625 48.1875 22.3125 43.546875 
Q 18.109375 38.921875 18.109375 30.90625 
L 18.109375 0 
L 9.078125 0 
L 9.078125 75.984375 
L 18.109375 75.984375 
L 18.109375 46.1875 
Q 21.34375 51.125 25.703125 53.5625 
Q 30.078125 56 35.796875 56 
Q 45.21875 56 50.046875 50.171875 
Q 54.890625 44.34375 54.890625 33.015625 
z
" id="DejaVuSans-104"/>
     </defs>
     <g transform="translate(94.6 58.070438)scale(0.1 -0.1)">
      <use xlink:href="#DejaVuSans-65"/>
      <use x="68.392578" xlink:href="#DejaVuSans-116"/>
      <use x="107.601562" xlink:href="#DejaVuSans-32"/>
      <use x="139.388672" xlink:href="#DejaVuSans-104"/>
      <use x="202.767578" xlink:href="#DejaVuSans-111"/>
      <use x="263.949219" xlink:href="#DejaVuSans-109"/>
      <use x="361.361328" xlink:href="#DejaVuSans-101"/>
     </g>
    </g>
    <g id="line2d_20">
     <path d="M 66.6 69.248563 
L 86.6 69.248563 
" style="fill:none;stroke:#808000;stroke-linecap:square;stroke-width:2;"/>
    </g>
    <g id="line2d_21">
     <g>
      <use style="fill:#808000;stroke:#808000;" x="76.6" xlink:href="#m7735ae1826" y="69.248563"/>
     </g>
    </g>
    <g id="text_15">
     <!-- At work -->
     <g transform="translate(94.6 72.748563)scale(0.1 -0.1)">
      <use xlink:href="#DejaVuSans-65"/>
      <use x="68.392578" xlink:href="#DejaVuSans-116"/>
      <use x="107.601562" xlink:href="#DejaVuSans-32"/>
      <use x="139.388672" xlink:href="#DejaVuSans-119"/>
      <use x="221.175781" xlink:href="#DejaVuSans-111"/>
      <use x="282.357422" xlink:href="#DejaVuSans-114"/>
      <use x="323.470703" xlink:href="#DejaVuSans-107"/>
     </g>
    </g>
    <g id="line2d_22">
     <path d="M 66.6 83.926688 
L 86.6 83.926688 
" style="fill:none;stroke:#000000;stroke-linecap:square;stroke-width:4;"/>
    </g>
    <g id="line2d_23">
     <g>
      <use style="stroke:#000000;" x="76.6" xlink:href="#m3baffda493" y="83.926688"/>
     </g>
    </g>
    <g id="text_16">
     <!-- Public Stations -->
     <defs>
      <path d="M 19.671875 64.796875 
L 19.671875 37.40625 
L 32.078125 37.40625 
Q 38.96875 37.40625 42.71875 40.96875 
Q 46.484375 44.53125 46.484375 51.125 
Q 46.484375 57.671875 42.71875 61.234375 
Q 38.96875 64.796875 32.078125 64.796875 
z
M 9.8125 72.90625 
L 32.078125 72.90625 
Q 44.34375 72.90625 50.609375 67.359375 
Q 56.890625 61.8125 56.890625 51.125 
Q 56.890625 40.328125 50.609375 34.8125 
Q 44.34375 29.296875 32.078125 29.296875 
L 19.671875 29.296875 
L 19.671875 0 
L 9.8125 0 
z
" id="DejaVuSans-80"/>
      <path d="M 48.6875 27.296875 
Q 48.6875 37.203125 44.609375 42.84375 
Q 40.53125 48.484375 33.40625 48.484375 
Q 26.265625 48.484375 22.1875 42.84375 
Q 18.109375 37.203125 18.109375 27.296875 
Q 18.109375 17.390625 22.1875 11.75 
Q 26.265625 6.109375 33.40625 6.109375 
Q 40.53125 6.109375 44.609375 11.75 
Q 48.6875 17.390625 48.6875 27.296875 
z
M 18.109375 46.390625 
Q 20.953125 51.265625 25.265625 53.625 
Q 29.59375 56 35.59375 56 
Q 45.5625 56 51.78125 48.09375 
Q 58.015625 40.1875 58.015625 27.296875 
Q 58.015625 14.40625 51.78125 6.484375 
Q 45.5625 -1.421875 35.59375 -1.421875 
Q 29.59375 -1.421875 25.265625 0.953125 
Q 20.953125 3.328125 18.109375 8.203125 
L 18.109375 0 
L 9.078125 0 
L 9.078125 75.984375 
L 18.109375 75.984375 
z
" id="DejaVuSans-98"/>
      <path d="M 53.515625 70.515625 
L 53.515625 60.890625 
Q 47.90625 63.578125 42.921875 64.890625 
Q 37.9375 66.21875 33.296875 66.21875 
Q 25.25 66.21875 20.875 63.09375 
Q 16.5 59.96875 16.5 54.203125 
Q 16.5 49.359375 19.40625 46.890625 
Q 22.3125 44.4375 30.421875 42.921875 
L 36.375 41.703125 
Q 47.40625 39.59375 52.65625 34.296875 
Q 57.90625 29 57.90625 20.125 
Q 57.90625 9.515625 50.796875 4.046875 
Q 43.703125 -1.421875 29.984375 -1.421875 
Q 24.8125 -1.421875 18.96875 -0.25 
Q 13.140625 0.921875 6.890625 3.21875 
L 6.890625 13.375 
Q 12.890625 10.015625 18.65625 8.296875 
Q 24.421875 6.59375 29.984375 6.59375 
Q 38.421875 6.59375 43.015625 9.90625 
Q 47.609375 13.234375 47.609375 19.390625 
Q 47.609375 24.75 44.3125 27.78125 
Q 41.015625 30.8125 33.5 32.328125 
L 27.484375 33.5 
Q 16.453125 35.6875 11.515625 40.375 
Q 6.59375 45.0625 6.59375 53.421875 
Q 6.59375 63.09375 13.40625 68.65625 
Q 20.21875 74.21875 32.171875 74.21875 
Q 37.3125 74.21875 42.625 73.28125 
Q 47.953125 72.359375 53.515625 70.515625 
z
" id="DejaVuSans-83"/>
     </defs>
     <g transform="translate(94.6 87.426688)scale(0.1 -0.1)">
      <use xlink:href="#DejaVuSans-80"/>
      <use x="60.287109" xlink:href="#DejaVuSans-117"/>
      <use x="123.666016" xlink:href="#DejaVuSans-98"/>
      <use x="187.142578" xlink:href="#DejaVuSans-108"/>
      <use x="214.925781" xlink:href="#DejaVuSans-105"/>
      <use x="242.708984" xlink:href="#DejaVuSans-99"/>
      <use x="297.689453" xlink:href="#DejaVuSans-32"/>
      <use x="329.476562" xlink:href="#DejaVuSans-83"/>
      <use x="392.953125" xlink:href="#DejaVuSans-116"/>
      <use x="432.162109" xlink:href="#DejaVuSans-97"/>
      <use x="493.441406" xlink:href="#DejaVuSans-116"/>
      <use x="532.650391" xlink:href="#DejaVuSans-105"/>
      <use x="560.433594" xlink:href="#DejaVuSans-111"/>
      <use x="621.615234" xlink:href="#DejaVuSans-110"/>
      <use x="684.994141" xlink:href="#DejaVuSans-115"/>
     </g>
    </g>
   </g>
  </g>
 </g>
 <defs>
  <clipPath id="pb23ccbf9c4">
   <rect height="266.112" width="357.12" x="57.6" y="41.472"/>
  </clipPath>
 </defs>
</svg>
